<svg width="90.000000" height="90.000000" viewBox="0 0 90 90" fill="none" xmlns="http://www.w3.org/2000/svg" xmlns:xlink="http://www.w3.org/1999/xlink">
	<desc>
			Created with Pixso.
	</desc>
	<defs>
		<clipPath id="clip21_528">
			<rect id="Google Code" width="62.000000" height="62.000000" transform="translate(14.000000 14.000000)" fill="white" fill-opacity="0"/>
		</clipPath>
	</defs>
	<rect id="div.features-box-image" rx="10.000000" width="90.000000" height="90.000000" fill="#A35486" fill-opacity="1.000000"/>
	<rect id="Google Code" width="62.000000" height="62.000000" transform="translate(14.000000 14.000000)" fill="#FFFFFF" fill-opacity="0"/>
	<g clip-path="url(#clip21_528)">
		<path id="Vector" d="M24.3333 22.2667C23.7852 22.2668 23.2595 22.4846 22.8719 22.8721C22.4844 23.2596 22.2666 23.7853 22.2666 24.3334L22.2666 57.4C22.2666 57.9482 22.4844 58.4738 22.8719 58.8613C23.2595 59.2489 23.7852 59.4667 24.3333 59.4667L38.7959 59.4667L38.7959 63.6L30.1821 63.6C29.6571 63.6 29.1516 63.8015 28.7693 64.1611L24.6603 68.0159C23.9762 68.6545 24.4344 69.8 25.3706 69.8L64.6293 69.8C65.5654 69.8 66.0237 68.6526 65.3396 68.0119L61.2306 64.1571C60.8461 63.7996 60.3427 63.6 59.8177 63.6L51.1959 63.6L51.1959 59.4667L65.6666 59.4667C66.2147 59.4667 66.7404 59.2489 67.1279 58.8613C67.5155 58.4738 67.7332 57.9482 67.7333 57.4L67.7333 24.3334C67.7332 23.7853 67.5155 23.2596 67.1279 22.8721C66.7404 22.4846 66.2147 22.2668 65.6666 22.2667L24.3333 22.2667ZM26.3999 26.4001L63.6 26.4001L63.6 55.3334L26.3999 55.3334L26.3999 26.4001ZM38.7595 32.5799C38.2227 32.5959 37.713 32.8203 37.3387 33.2055L31.1388 39.4055C30.7513 39.7931 30.5337 40.3187 30.5337 40.8667C30.5337 41.4147 30.7513 41.9403 31.1388 42.3279L37.3387 48.5279C37.5292 48.7263 37.7573 48.8846 38.0096 48.9937C38.2621 49.1028 38.5337 49.1605 38.8086 49.1632C39.0836 49.166 39.3563 49.114 39.611 49.01C39.8655 48.9061 40.0968 48.7524 40.2911 48.558C40.4856 48.3635 40.6393 48.1323 40.7432 47.8777C40.8472 47.6231 40.8993 47.3504 40.8965 47.0754C40.8937 46.8005 40.8361 46.5289 40.7269 46.2764C40.6178 46.024 40.4595 45.796 40.2611 45.6055L35.5223 40.8667L40.2611 36.1279C40.5598 35.8376 40.7638 35.4639 40.8463 35.0557C40.929 34.6475 40.8862 34.2238 40.7239 33.8403C40.5616 33.4568 40.2872 33.1312 39.9366 32.9063C39.5862 32.6814 39.1759 32.5676 38.7595 32.5799ZM51.1798 32.5799C50.7687 32.58 50.3668 32.7027 50.0259 32.9323C49.6848 33.162 49.42 33.4881 49.2654 33.869C49.1106 34.2499 49.073 34.6683 49.1573 35.0707C49.2417 35.4731 49.4441 35.8412 49.7388 36.1279L54.4775 40.8667L49.7388 45.6055C49.5404 45.796 49.3821 46.024 49.2729 46.2764C49.1638 46.5289 49.1062 46.8005 49.1034 47.0754C49.1006 47.3504 49.1527 47.6231 49.2566 47.8777C49.3606 48.1323 49.5143 48.3635 49.7087 48.558C49.9031 48.7524 50.1344 48.9061 50.3889 49.01C50.6436 49.114 50.9163 49.166 51.1912 49.1632C51.4662 49.1605 51.7378 49.1028 51.9902 48.9937C52.2426 48.8846 52.4707 48.7263 52.6611 48.5279L58.8611 42.3279C59.2485 41.9403 59.4662 41.4147 59.4662 40.8667C59.4662 40.3187 59.2485 39.7931 58.8611 39.4055L52.6611 33.2055C52.4685 33.0076 52.2382 32.8502 51.9838 32.7427C51.7294 32.6353 51.4559 32.5799 51.1798 32.5799Z" fill="#FFFFFF" fill-opacity="1.000000" fill-rule="nonzero"/>
	</g>
</svg>
