<svg width="790.000000" height="1190.000000" viewBox="0 0 790 1190" fill="none" xmlns="http://www.w3.org/2000/svg" xmlns:xlink="http://www.w3.org/1999/xlink">
	<desc>
			Created with Pixso.
	</desc>
	<defs>
		<clipPath id="clip38_19208">
			<rect id="_Режим_изоляции" width="790.000000" height="1190.000000" transform="matrix(-1 0 0 1 790 0)" fill="white" fill-opacity="0"/>
		</clipPath>
		<linearGradient id="paint_linear_38_19209_0" x1="789.999939" y1="459.644043" x2="0.000061" y2="459.644043" gradientUnits="userSpaceOnUse">
			<stop offset="0.020000" stop-color="#0025FF"/>
			<stop offset="0.180000" stop-color="#566FFF"/>
			<stop offset="0.500000" stop-color="#FFFFFF"/>
			<stop offset="0.670000" stop-color="#CEA8D3"/>
			<stop offset="1.000000" stop-color="#70007F"/>
		</linearGradient>
		<linearGradient id="paint_linear_38_19210_0" x1="774.653076" y1="469.406677" x2="1.713440" y2="469.406677" gradientUnits="userSpaceOnUse">
			<stop offset="0.020000" stop-color="#0424FA"/>
			<stop offset="0.170000" stop-color="#5065FA"/>
			<stop offset="0.500000" stop-color="#F9F5FA"/>
			<stop offset="0.660000" stop-color="#CDA8D3"/>
			<stop offset="1.000000" stop-color="#70007F"/>
		</linearGradient>
		<linearGradient id="paint_linear_38_19211_0" x1="759.379089" y1="479.169128" x2="3.408386" y2="479.169128" gradientUnits="userSpaceOnUse">
			<stop offset="0.020000" stop-color="#0922F5"/>
			<stop offset="0.150000" stop-color="#4B5BF5"/>
			<stop offset="0.500000" stop-color="#F4EBF5"/>
			<stop offset="0.640000" stop-color="#CEA8D3"/>
			<stop offset="1.000000" stop-color="#70007F"/>
		</linearGradient>
		<linearGradient id="paint_linear_38_19212_0" x1="744.159790" y1="488.913635" x2="5.121643" y2="488.913635" gradientUnits="userSpaceOnUse">
			<stop offset="0.020000" stop-color="#0D21F0"/>
			<stop offset="0.140000" stop-color="#4551F0"/>
			<stop offset="0.500000" stop-color="#EEE2F0"/>
			<stop offset="0.630000" stop-color="#CDA8D3"/>
			<stop offset="1.000000" stop-color="#70007F"/>
		</linearGradient>
		<linearGradient id="paint_linear_38_19213_0" x1="729.031616" y1="498.657959" x2="6.835144" y2="498.657959" gradientUnits="userSpaceOnUse">
			<stop offset="0.020000" stop-color="#111FEB"/>
			<stop offset="0.120000" stop-color="#4047EB"/>
			<stop offset="0.500000" stop-color="#E9D8EB"/>
			<stop offset="0.610000" stop-color="#CEA8D3"/>
			<stop offset="1.000000" stop-color="#70007F"/>
		</linearGradient>
		<linearGradient id="paint_linear_38_19214_0" x1="713.958252" y1="508.384216" x2="8.548340" y2="508.384216" gradientUnits="userSpaceOnUse">
			<stop offset="0.020000" stop-color="#161EE6"/>
			<stop offset="0.100000" stop-color="#3A3DE6"/>
			<stop offset="0.500000" stop-color="#E3CEE6"/>
			<stop offset="0.590000" stop-color="#CDA8D3"/>
			<stop offset="1.000000" stop-color="#70007F"/>
		</linearGradient>
		<linearGradient id="paint_linear_38_19215_0" x1="698.975891" y1="518.110352" x2="10.261597" y2="518.110352" gradientUnits="userSpaceOnUse">
			<stop offset="0.020000" stop-color="#1A1CE1"/>
			<stop offset="0.090000" stop-color="#3533E1"/>
			<stop offset="0.500000" stop-color="#DEC4E1"/>
			<stop offset="0.570000" stop-color="#CEA8D3"/>
			<stop offset="1.000000" stop-color="#70007F"/>
		</linearGradient>
		<linearGradient id="paint_linear_38_19216_0" x1="684.084595" y1="527.836670" x2="11.974915" y2="527.836670" gradientUnits="userSpaceOnUse">
			<stop offset="0.020000" stop-color="#1E1BDD"/>
			<stop offset="0.060000" stop-color="#2F2ADD"/>
			<stop offset="0.500000" stop-color="#D8BADD"/>
			<stop offset="0.550000" stop-color="#CEA8D4"/>
			<stop offset="1.000000" stop-color="#70007F"/>
		</linearGradient>
		<linearGradient id="paint_linear_38_19217_0" x1="669.302795" y1="537.526245" x2="13.688232" y2="537.526245" gradientUnits="userSpaceOnUse">
			<stop offset="0.020000" stop-color="#221AD8"/>
			<stop offset="0.040000" stop-color="#2A21D8"/>
			<stop offset="0.500000" stop-color="#D3B1D8"/>
			<stop offset="0.520000" stop-color="#CEA8D3"/>
			<stop offset="1.000000" stop-color="#70007F"/>
		</linearGradient>
		<linearGradient id="paint_linear_38_19218_0" x1="654.630249" y1="547.234314" x2="15.419739" y2="547.234314" gradientUnits="userSpaceOnUse">
			<stop offset="0.020000" stop-color="#2718D3"/>
			<stop offset="0.500000" stop-color="#CDA7D3"/>
			<stop offset="1.000000" stop-color="#70007F"/>
		</linearGradient>
		<linearGradient id="paint_linear_38_19219_0" x1="640.067139" y1="556.905823" x2="17.133179" y2="556.905823" gradientUnits="userSpaceOnUse">
			<stop offset="0.020000" stop-color="#2B17CE"/>
			<stop offset="0.500000" stop-color="#C89DCE"/>
			<stop offset="1.000000" stop-color="#70007F"/>
		</linearGradient>
		<linearGradient id="paint_linear_38_19220_0" x1="625.668030" y1="566.577454" x2="18.846436" y2="566.577454" gradientUnits="userSpaceOnUse">
			<stop offset="0.020000" stop-color="#2F15C9"/>
			<stop offset="0.500000" stop-color="#C293C9"/>
			<stop offset="1.000000" stop-color="#70007F"/>
		</linearGradient>
		<linearGradient id="paint_linear_38_19221_0" x1="611.396484" y1="576.248840" x2="20.578064" y2="576.248840" gradientUnits="userSpaceOnUse">
			<stop offset="0.020000" stop-color="#3414C4"/>
			<stop offset="0.500000" stop-color="#BD89C4"/>
			<stop offset="1.000000" stop-color="#70007F"/>
		</linearGradient>
		<linearGradient id="paint_linear_38_19222_0" x1="597.325562" y1="585.883911" x2="22.273071" y2="585.883911" gradientUnits="userSpaceOnUse">
			<stop offset="0.020000" stop-color="#3813BF"/>
			<stop offset="0.500000" stop-color="#B880BF"/>
			<stop offset="1.000000" stop-color="#70007F"/>
		</linearGradient>
		<linearGradient id="paint_linear_38_19223_0" x1="585.241211" y1="595.537537" x2="23.913452" y2="595.537537" gradientUnits="userSpaceOnUse">
			<stop offset="0.020000" stop-color="#3C11BA"/>
			<stop offset="0.500000" stop-color="#B276BA"/>
			<stop offset="1.000000" stop-color="#70007F"/>
		</linearGradient>
		<linearGradient id="paint_linear_38_19224_0" x1="574.469238" y1="605.172485" x2="25.572083" y2="605.172485" gradientUnits="userSpaceOnUse">
			<stop offset="0.020000" stop-color="#4110B5"/>
			<stop offset="0.500000" stop-color="#AD6CB5"/>
			<stop offset="1.000000" stop-color="#70007F"/>
		</linearGradient>
		<linearGradient id="paint_linear_38_19225_0" x1="563.751953" y1="614.807495" x2="27.230713" y2="614.807495" gradientUnits="userSpaceOnUse">
			<stop offset="0.020000" stop-color="#450EB0"/>
			<stop offset="0.500000" stop-color="#A762B0"/>
			<stop offset="1.000000" stop-color="#70007F"/>
		</linearGradient>
		<linearGradient id="paint_linear_38_19226_0" x1="553.052856" y1="624.479309" x2="28.871094" y2="624.479309" gradientUnits="userSpaceOnUse">
			<stop offset="0.020000" stop-color="#490DAB"/>
			<stop offset="0.500000" stop-color="#A258AB"/>
			<stop offset="1.000000" stop-color="#70007F"/>
		</linearGradient>
		<linearGradient id="paint_linear_38_19227_0" x1="536.958679" y1="634.150635" x2="30.529663" y2="634.150635" gradientUnits="userSpaceOnUse">
			<stop offset="0.020000" stop-color="#4E0BA6"/>
			<stop offset="0.500000" stop-color="#9C4EA6"/>
			<stop offset="1.000000" stop-color="#70007F"/>
		</linearGradient>
		<linearGradient id="paint_linear_38_19228_0" x1="526.697021" y1="643.858643" x2="32.170105" y2="643.858643" gradientUnits="userSpaceOnUse">
			<stop offset="0.020000" stop-color="#520AA1"/>
			<stop offset="0.500000" stop-color="#9745A1"/>
			<stop offset="1.000000" stop-color="#70007F"/>
		</linearGradient>
		<linearGradient id="paint_linear_38_19229_0" x1="516.526489" y1="653.566711" x2="33.810394" y2="653.566711" gradientUnits="userSpaceOnUse">
			<stop offset="0.020000" stop-color="#56099D"/>
			<stop offset="0.500000" stop-color="#913B9D"/>
			<stop offset="1.000000" stop-color="#70007F"/>
		</linearGradient>
		<linearGradient id="paint_linear_38_19230_0" x1="506.483704" y1="663.274475" x2="35.451019" y2="663.274475" gradientUnits="userSpaceOnUse">
			<stop offset="0.020000" stop-color="#5A0798"/>
			<stop offset="0.500000" stop-color="#8C3198"/>
			<stop offset="1.000000" stop-color="#70007F"/>
		</linearGradient>
		<linearGradient id="paint_linear_38_19231_0" x1="496.513611" y1="673.018921" x2="37.073151" y2="673.018921" gradientUnits="userSpaceOnUse">
			<stop offset="0.020000" stop-color="#5F0693"/>
			<stop offset="0.500000" stop-color="#862793"/>
			<stop offset="1.000000" stop-color="#70007F"/>
		</linearGradient>
		<linearGradient id="paint_linear_38_19232_0" x1="486.616516" y1="682.763184" x2="38.713593" y2="682.763184" gradientUnits="userSpaceOnUse">
			<stop offset="0.020000" stop-color="#63048E"/>
			<stop offset="0.500000" stop-color="#811D8E"/>
			<stop offset="1.000000" stop-color="#70007F"/>
		</linearGradient>
		<linearGradient id="paint_linear_38_19233_0" x1="476.774109" y1="692.525635" x2="40.335754" y2="692.525635" gradientUnits="userSpaceOnUse">
			<stop offset="0.020000" stop-color="#670389"/>
			<stop offset="0.500000" stop-color="#7B1489"/>
			<stop offset="1.000000" stop-color="#70007F"/>
		</linearGradient>
		<linearGradient id="paint_linear_38_19234_0" x1="467.004639" y1="702.288574" x2="41.957825" y2="702.288574" gradientUnits="userSpaceOnUse">
			<stop offset="0.020000" stop-color="#6C0184"/>
			<stop offset="0.500000" stop-color="#760A84"/>
			<stop offset="1.000000" stop-color="#70007F"/>
		</linearGradient>
	</defs>
	<g clip-path="url(#clip38_19208)">
		<path id="Vector" d="M0.291626 4.35303C101.596 -6.88489 198.671 42.4746 288.62 90.3405C305.917 99.5385 323.469 108.937 337.522 122.597C349.242 133.999 358.1 147.933 367.687 161.192C387.19 188.167 409.973 212.592 432.684 236.944C484.776 292.769 538.964 350.106 609.136 380.25C638.554 392.89 670.469 400.595 696.953 418.572C715.744 431.34 730.927 448.734 744.433 467.002C765.795 495.926 783.912 528.802 786.865 564.628C791.367 619.343 758.741 672.29 714.159 704.365C669.576 736.439 614.623 750.664 560.307 758.915C485.414 770.299 409.408 771.556 333.713 774.178C306.537 775.107 278.686 776.382 253.661 786.983C223.97 799.55 201.259 823.92 177.072 845.212C144.191 874.172 107.118 898.379 67.3841 916.866" stroke="url(#paint_linear_38_19209_0)" stroke-opacity="1.000000" stroke-width="3.000000"/>
		<path id="Vector" d="M1.98676 13.278C89.5114 4.15283 173.372 41.4001 252.349 82.6179C262.884 88.1185 273.346 93.692 283.717 99.2289C300.65 108.281 317.819 117.497 331.653 130.812C343.191 141.922 351.976 155.473 361.454 168.35C380.756 194.56 403.211 218.293 425.612 241.934C476.993 296.157 530.415 351.836 599.039 381.561C627.819 394.02 659.169 401.524 684.887 419.464C706.066 434.254 719.736 456.657 732.44 477.202C750.867 507.018 769.604 538.273 771.737 573.298C773.541 603.552 763.699 632.948 746.985 658.575C734.226 678.137 716.966 695.458 697.664 709.028C688.532 715.421 679.054 721.104 669.376 726.222C641.562 740.938 611.433 751.502 580.685 758.569C569.858 761.065 558.995 763.287 548.132 765.217C491.355 775.344 433.832 779.461 376.217 782.885C360.269 783.832 344.321 784.743 328.227 785.599C311.075 786.455 293.577 787.329 276.736 790.717C267.495 792.574 258.455 795.179 249.761 798.931C220.653 811.462 198.361 835.45 174.648 856.505C156.148 872.934 136.336 887.869 115.448 901.111C99.9553 910.928 83.7335 919.834 67.1108 927.193" stroke="url(#paint_linear_38_19210_0)" stroke-opacity="1.000000" stroke-width="3.000000"/>
		<path id="Vector" d="M3.68176 22.2209C89.3655 13.8972 170.985 51.1262 248.138 91.7612C258.436 97.189 268.662 102.671 278.796 108.135C295.345 117.042 312.169 126.094 325.766 139.044C337.103 149.863 345.815 163.014 355.184 175.508C374.267 200.953 396.413 223.994 418.503 246.943C469.174 299.581 521.812 353.585 588.923 382.891C617.065 395.185 647.795 402.544 672.784 420.393C696.351 437.223 708.381 464.343 720.392 487.438C736.158 517.728 755.223 547.781 756.554 581.986C757.611 611.565 747.258 640.015 730.472 664.896C717.749 683.747 700.361 700.504 681.15 713.69C672.019 719.92 662.577 725.493 653.136 730.556C625.978 745.127 597.034 756.693 567.397 764.216C556.935 766.875 546.437 769.352 535.938 771.519C481.039 782.848 425.338 788.385 369.455 793.23C353.999 794.578 338.506 795.926 322.722 797.019C305.972 798.184 288.784 799.15 272.271 802.61C263.212 804.505 254.354 807.146 245.824 810.879C217.317 823.374 195.427 846.961 172.206 867.779C154.089 884.008 134.732 898.834 114.318 911.984C99.1715 921.747 83.1685 930.653 66.8191 937.502" stroke="url(#paint_linear_38_19211_0)" stroke-opacity="1.000000" stroke-width="3.000000"/>
		<path id="Vector" d="M5.37683 31.1639C89.2197 23.6234 168.615 60.8524 243.946 100.905C254.007 106.259 263.996 111.651 273.893 117.024C290.078 125.785 306.518 134.655 319.879 147.277C331.033 157.805 339.655 170.554 348.932 182.685C367.815 207.364 389.632 229.713 411.413 251.97C461.373 303.023 513.246 355.352 578.807 384.221C606.311 396.333 636.367 403.618 660.7 421.304C686.655 440.173 697.007 471.774 708.381 497.656C721.777 528.128 740.897 557.288 741.408 590.656C741.736 619.561 730.836 647.064 713.976 671.216C701.291 689.375 683.811 705.585 664.637 718.353C655.505 724.437 646.118 729.864 636.896 734.873C610.412 749.28 582.617 761.866 554.128 769.844C544.012 772.667 533.897 775.417 523.744 777.821C470.723 790.352 416.845 797.31 362.675 803.576C347.693 805.306 332.674 807.091 317.217 808.457C300.868 809.896 284.008 810.97 267.805 814.504C258.929 816.453 250.234 819.094 241.905 822.828C213.982 835.286 192.51 858.49 169.782 879.072C152.047 895.118 133.146 909.799 113.206 922.876C98.4059 932.584 82.6033 941.491 66.5457 947.847" stroke="url(#paint_linear_38_19212_0)" stroke-opacity="1.000000" stroke-width="3.000000"/>
		<path id="Vector" d="M7.05377 40.1068C89.0557 33.3677 166.209 70.5785 239.718 110.066C249.524 115.33 259.275 120.648 268.971 125.93C284.792 134.545 300.85 143.252 313.991 155.51C324.946 165.746 333.512 178.095 342.68 189.861C361.363 213.776 382.87 235.432 404.323 256.997C453.572 306.466 504.661 357.118 568.71 385.568C595.576 397.517 624.957 404.748 648.615 422.233C676.94 443.161 691.12 477.585 696.369 507.892C713.065 535.687 726.662 566.796 726.261 599.362C725.915 627.594 714.45 654.149 697.481 677.554C684.85 695.003 667.225 710.667 648.123 723.034C638.974 728.954 629.641 734.254 620.656 739.226C594.828 753.469 568.217 767.093 540.841 775.526C531.071 778.531 521.338 781.537 511.551 784.16C460.406 797.893 408.333 806.271 355.913 813.939C341.404 816.07 326.859 818.274 311.713 819.913C295.783 821.625 279.215 822.828 263.358 826.434C254.645 828.419 246.152 831.097 237.986 834.812C210.646 847.234 189.576 870.056 167.339 890.383C149.988 906.229 131.542 920.8 112.076 933.804C97.6404 943.458 82.0384 952.383 66.2723 958.211" stroke="url(#paint_linear_38_19213_0)" stroke-opacity="1.000000" stroke-width="3.000000"/>
		<path id="Vector" d="M8.74884 49.0499C88.8917 43.0939 163.822 80.3047 235.507 119.209C245.076 124.4 254.591 129.628 264.05 134.819C279.488 143.288 295.2 151.812 308.104 163.724C318.876 173.669 327.352 185.635 336.428 197.001C354.892 220.151 376.09 241.115 397.233 261.988C445.771 309.872 496.094 358.849 558.612 386.88C584.84 398.646 613.511 405.877 636.549 423.125C667.243 446.129 681.205 484.761 684.376 518.092C699.905 545.613 712.372 576.267 711.133 608.014C710.058 635.59 698.065 661.162 681.004 683.856C668.428 700.595 650.675 715.712 631.646 727.679C622.497 733.434 613.219 738.625 604.452 743.525C579.281 757.622 553.837 772.266 527.608 781.136C518.185 784.324 508.835 787.566 499.412 790.425C450.145 805.361 399.894 815.16 349.205 824.248C335.171 826.762 321.1 829.403 306.263 831.297C290.734 833.301 274.476 834.594 258.947 838.291C250.417 840.313 242.105 843.027 234.122 846.724C207.383 859.11 186.714 881.549 164.97 901.639C148.019 917.285 130.011 931.746 111.019 944.66C96.9296 954.259 81.5281 963.183 66.0536 968.502" stroke="url(#paint_linear_38_19214_0)" stroke-opacity="1.000000" stroke-width="3.000000"/>
		<path id="Vector" d="M10.4439 57.9745C88.7458 52.82 161.452 90.0127 231.297 128.353C240.629 133.471 249.906 138.607 259.147 143.707C274.221 152.013 289.549 160.373 302.235 171.957C312.807 181.61 321.209 193.176 330.195 204.177C348.458 226.562 369.328 246.834 390.179 267.015C438.006 313.314 487.546 360.615 548.533 388.228C574.123 399.812 602.083 407.061 624.483 424.072C657.547 449.153 671.271 492.01 672.383 528.346C686.746 555.576 698.083 585.793 696.005 616.738C694.2 643.64 681.697 668.265 664.546 690.231C652.024 706.277 634.125 720.83 615.169 732.396C606.001 737.988 596.779 743.051 588.249 747.914C563.752 761.848 539.456 777.548 514.358 786.837C505.281 790.188 496.295 793.704 487.236 796.8C439.865 812.938 391.418 824.157 342.462 834.667C328.919 837.581 315.304 840.641 300.795 842.808C286.287 844.976 269.737 846.506 254.536 850.258C246.188 852.334 238.059 855.048 230.24 858.745C204.085 871.094 183.835 893.151 162.582 912.986C146.014 928.431 128.444 942.766 109.944 955.606C96.2006 965.15 81.0177 974.075 65.8167 978.884" stroke="url(#paint_linear_38_19215_0)" stroke-opacity="1.000000" stroke-width="3.000000"/>
		<path id="Vector" d="M12.139 66.9176C88.6 62.5645 159.064 99.7389 227.105 137.496C236.2 142.541 245.24 147.605 254.244 152.595C268.953 160.755 283.899 168.951 296.366 180.171C306.755 189.533 315.085 200.698 323.961 211.335C342.024 232.955 362.566 252.535 383.107 272.023C430.223 316.738 478.998 362.364 538.453 389.539C563.424 400.959 590.618 408.226 612.435 424.965C647.85 452.158 661.356 499.204 660.408 538.546C673.604 565.503 683.811 595.264 680.913 625.39C678.38 651.618 665.366 675.277 648.105 696.515C635.638 711.851 617.594 725.839 598.711 737.022C589.543 742.45 580.375 747.386 572.063 752.194C548.223 765.964 525.093 782.721 501.143 792.429C492.413 795.962 483.81 799.732 475.115 803.047C429.622 820.387 382.998 833.027 335.772 844.957C322.704 848.254 309.562 851.733 295.364 854.192C281.165 856.651 265.016 858.272 250.143 862.115C241.978 864.228 234.031 866.978 226.394 870.657C200.822 882.97 180.991 904.644 160.213 924.224C144.027 939.487 126.913 953.694 108.886 966.444C95.4897 975.933 80.5073 984.858 65.5978 989.175" stroke="url(#paint_linear_38_19216_0)" stroke-opacity="1.000000" stroke-width="3.000000"/>
		<path id="Vector" d="M13.834 75.8606C88.4542 72.2906 156.695 109.465 222.894 146.639C231.734 151.612 240.556 156.584 249.323 161.484C263.649 169.498 278.249 177.512 290.461 188.386C300.649 197.456 308.906 208.239 317.673 218.475C335.517 239.33 355.767 258.217 375.98 277.014C422.386 320.126 470.376 364.094 528.319 390.85C552.652 402.088 579.099 409.41 600.315 425.857C638.08 455.145 651.368 506.399 648.342 548.746C660.372 575.429 669.43 604.753 665.712 634.041C662.45 659.614 648.925 682.308 631.555 702.817C619.161 717.461 600.953 730.884 582.161 741.667C572.975 746.931 563.861 751.757 555.787 756.511C532.621 770.117 510.639 787.93 487.819 798.075C479.435 801.791 471.215 805.798 462.885 809.368C419.269 827.909 374.468 841.989 328.974 855.303C316.379 859 303.711 862.898 289.823 865.612C275.497 868.417 260.204 870.092 245.641 874.008C237.658 876.158 229.893 878.944 222.42 882.605C197.45 894.881 178.02 916.173 157.734 935.516C141.931 950.579 125.272 964.659 107.702 977.335C94.6512 986.77 79.8876 995.695 65.2698 999.502" stroke="url(#paint_linear_38_19217_0)" stroke-opacity="1.000000" stroke-width="3.000000"/>
		<path id="Vector" d="M15.5109 84.8036C88.2901 82.0351 154.289 119.21 218.666 155.801C227.269 160.701 235.853 165.582 244.402 170.39C258.363 178.259 272.58 186.109 284.574 196.636C294.58 205.416 302.745 215.797 311.421 225.669C329.065 245.759 348.987 263.955 368.89 282.059C414.585 323.587 461.81 365.879 518.203 392.217C541.898 403.291 567.598 410.649 588.23 426.823C628.347 458.242 641.416 513.666 636.331 559.037C647.194 585.429 655.122 614.316 650.566 642.802C646.574 667.701 632.558 689.448 615.06 709.21C602.739 723.162 584.366 736.002 565.648 746.402C556.461 751.502 547.403 756.202 539.565 760.901C517.055 774.361 496.222 793.248 474.569 803.776C466.531 807.692 458.693 811.936 450.71 815.724C408.971 835.468 365.992 850.968 322.212 865.703C310.091 869.783 297.897 874.1 284.337 877.105C270.776 880.11 255.429 881.968 241.212 885.975C233.411 888.179 225.811 890.984 218.538 894.627C194.151 906.866 175.14 927.776 155.346 946.864C139.926 961.726 123.723 975.696 106.626 988.3C93.9222 997.68 79.359 1006.62 65.0328 1009.9" stroke="url(#paint_linear_38_19218_0)" stroke-opacity="1.000000" stroke-width="3.000000"/>
		<path id="Vector" d="M17.206 93.7466C88.1261 91.7613 151.901 128.936 214.455 164.944C222.821 169.753 231.169 174.561 239.481 179.297C253.078 187.02 266.912 194.688 278.686 204.869C288.492 213.357 296.603 223.338 305.17 232.845C322.613 252.17 342.206 269.674 361.8 287.086C406.784 327.029 453.225 367.646 508.106 393.564C531.163 404.456 556.097 411.887 576.146 427.752C618.578 461.302 631.464 520.879 624.319 569.273C634.016 595.392 640.796 623.842 635.419 651.49C630.699 675.733 616.19 696.497 598.583 715.548C586.335 728.79 567.798 741.066 549.152 751.083C539.948 756.019 530.962 760.591 523.343 765.254C501.508 778.55 481.805 798.512 461.3 809.44C453.59 813.539 446.153 818.037 438.534 822.044C398.673 842.99 357.517 859.911 315.468 876.067C303.839 880.547 292.101 885.283 278.85 888.543C265.599 891.803 250.672 893.789 236.765 897.869C229.146 900.109 221.728 902.932 214.619 906.575C190.815 918.778 172.224 939.287 152.922 958.156C137.885 972.837 122.137 986.679 105.514 999.192C93.1566 1008.52 78.8123 1017.46 64.7595 1020.23" stroke="url(#paint_linear_38_19219_0)" stroke-opacity="1.000000" stroke-width="3.000000"/>
		<path id="Vector" d="M18.9011 102.671C87.9803 101.487 149.532 138.644 210.245 174.088C218.356 178.823 226.467 183.541 234.578 188.185C247.792 195.762 261.28 203.248 272.817 213.083C282.441 221.28 290.461 230.878 298.936 239.985C316.16 258.545 335.444 275.357 354.728 292.077C399.001 330.435 444.677 369.376 498.008 394.876C520.427 405.585 544.596 413.108 564.08 428.644C608.845 464.343 621.531 528.073 612.326 579.473C620.856 605.3 626.506 633.313 620.291 660.16C614.841 683.729 599.841 703.545 582.106 721.868C569.949 734.418 551.23 746.129 532.675 755.746C523.471 760.518 514.522 764.981 507.14 769.571C485.96 782.703 467.424 803.776 448.067 815.069C440.703 819.367 433.65 824.084 426.395 828.346C388.411 850.495 349.06 868.836 308.76 886.412C297.606 891.275 286.342 896.43 273.401 899.981C260.46 903.533 245.933 905.628 232.354 909.781C224.899 912.057 217.682 914.917 210.755 918.541C187.553 930.708 169.363 950.834 150.534 969.449C135.88 983.929 120.588 997.644 104.439 1010.08C92.4276 1019.35 78.2836 1028.3 64.5225 1030.57" stroke="url(#paint_linear_38_19220_0)" stroke-opacity="1.000000" stroke-width="3.000000"/>
		<path id="Vector" d="M20.5962 111.614C87.8345 111.214 147.144 148.37 206.053 183.231C213.927 187.894 221.801 192.52 229.675 197.073C242.525 204.487 255.63 211.827 266.948 221.316C276.371 229.221 284.318 238.419 292.703 247.161C309.726 264.956 328.7 281.076 347.656 297.104C391.218 333.878 436.11 371.161 487.929 396.205C509.71 406.751 533.113 414.346 552.014 429.555C599.075 467.439 611.597 535.286 600.333 589.691C607.678 615.245 612.199 642.82 605.163 668.83C598.966 691.743 583.51 710.594 565.629 728.17C553.563 740.046 534.662 751.156 516.18 760.391C506.958 764.999 498.081 769.334 490.918 773.887C470.413 786.874 453.006 809.04 434.798 820.697C427.763 825.195 421.11 830.15 414.202 834.63C378.113 857.98 340.566 877.742 301.998 896.721C291.317 901.985 280.527 907.54 267.914 911.383C255.301 915.226 241.176 917.412 227.925 921.656C220.652 923.987 213.617 926.865 206.855 930.471C184.236 942.602 166.446 962.345 148.128 980.723C133.875 995.003 119.02 1008.61 103.345 1020.96C91.6803 1030.17 77.7552 1039.12 64.2856 1040.88" stroke="url(#paint_linear_38_19221_0)" stroke-opacity="1.000000" stroke-width="3.000000"/>
		<path id="Vector" d="M22.2731 120.557C87.6705 120.958 144.756 158.096 201.824 192.374C209.461 196.964 217.098 201.5 224.754 205.962C237.239 213.229 249.961 220.387 261.043 229.531C270.284 237.144 278.139 245.941 286.433 254.32C303.256 271.331 321.902 286.777 340.548 302.094C383.399 337.283 427.507 372.891 477.813 397.517C498.956 407.88 521.575 415.567 539.93 430.465C589.269 470.536 601.645 542.499 588.303 599.909C594.482 625.189 597.854 652.31 589.998 677.5C583.072 699.739 567.16 717.661 549.134 734.49C537.159 745.674 518.076 756.201 499.667 765.053C490.426 769.498 481.604 773.705 474.678 778.204C454.829 791.026 438.589 814.34 421.529 826.343C414.84 831.042 408.57 836.233 402.026 840.932C367.815 865.484 332.091 886.667 295.254 907.067C285.066 912.713 274.749 918.687 262.428 922.803C250.107 926.92 236.4 929.233 223.478 933.549C216.387 935.917 209.534 938.813 202.954 942.438C180.918 954.532 163.548 973.893 145.723 992.016C131.852 1006.1 117.453 1019.57 102.252 1031.87C90.9331 1041.03 77.2084 1049.97 64.0305 1051.23" stroke="url(#paint_linear_38_19222_0)" stroke-opacity="1.000000" stroke-width="3.000000"/>
		<path id="Vector" d="M23.9681 129.5C87.5063 130.684 142.369 167.822 197.614 201.536C204.996 206.053 212.414 210.497 219.832 214.868C231.935 221.99 244.311 228.984 255.156 237.763C264.196 245.085 271.997 253.482 280.181 261.478C296.785 277.724 315.121 292.478 333.476 307.103C375.616 340.708 418.959 374.64 467.715 398.846C488.22 409.046 510.074 416.805 527.845 431.376C579.463 473.65 591.693 549.693 576.292 610.127C581.304 635.116 583.528 661.817 574.852 686.188C567.179 707.771 550.811 724.728 532.639 740.811C520.773 751.32 501.49 761.247 483.172 769.716C473.931 773.978 465.164 778.094 458.456 782.539C439.282 795.197 424.19 819.658 408.26 831.989C401.917 836.907 396.03 842.316 389.851 847.252C357.517 873.007 323.615 895.61 288.51 917.43C278.796 923.477 268.953 929.834 256.942 934.26C244.93 938.686 231.643 941.072 219.048 945.461C212.141 947.865 205.451 950.798 199.054 954.404C177.619 966.462 160.65 985.441 143.298 1003.33C129.811 1017.22 115.867 1030.57 101.14 1042.78C90.1675 1051.88 76.6614 1060.83 63.757 1061.57" stroke="url(#paint_linear_38_19223_0)" stroke-opacity="1.000000" stroke-width="3.000000"/>
		<path id="Vector" d="M25.6632 138.443C87.3606 140.429 139.999 177.548 193.404 210.679C200.548 215.123 207.73 219.495 214.911 223.757C226.649 230.733 238.642 237.545 249.268 245.996C258.127 253.045 265.837 261.041 273.911 268.654C290.315 284.136 308.323 298.197 326.367 312.13C367.797 344.15 410.356 376.407 457.6 400.194C477.467 410.212 498.537 418.08 515.761 432.305C569.639 476.801 581.742 556.924 564.281 620.363C568.126 645.079 569.202 671.325 559.724 694.875C551.303 715.785 534.516 731.813 516.162 747.149C504.406 756.985 484.921 766.31 466.677 774.397C457.417 778.495 448.705 782.484 442.234 786.874C423.716 799.368 409.791 824.995 395.009 837.635C389.013 842.772 383.508 848.382 377.676 853.554C347.219 880.511 315.14 904.535 281.748 927.776C272.507 934.205 263.139 940.981 251.437 945.698C239.736 950.415 226.85 952.911 214.583 957.373C207.857 959.832 201.35 962.783 195.135 966.371C174.284 978.392 157.734 996.988 140.874 1014.62C127.769 1028.32 114.263 1041.54 100.01 1053.67C89.3838 1062.72 76.0783 1071.68 63.4654 1071.9" stroke="url(#paint_linear_38_19224_0)" stroke-opacity="1.000000" stroke-width="3.000000"/>
		<path id="Vector" d="M27.3582 147.368C87.2147 150.137 137.612 187.256 189.211 219.823C196.119 224.176 203.064 228.474 210.026 232.645C221.382 239.475 233.01 246.105 243.418 254.21C252.075 260.968 259.712 268.563 267.696 275.812C283.899 290.529 301.597 303.898 319.314 317.139C360.05 347.556 401.826 378.155 447.52 401.524C466.768 411.359 487.017 419.337 503.713 433.216C559.833 479.952 571.826 564.137 552.306 630.581C554.985 655.005 554.894 680.833 544.614 703.563C535.446 723.817 518.24 738.917 499.703 753.488C488.056 762.649 468.372 771.374 450.2 779.078C440.922 783.012 432.283 786.874 426.031 791.227C408.187 803.576 395.428 830.35 381.758 843.3C376.108 848.655 370.986 854.483 365.518 859.893C336.939 888.051 306.682 913.496 275.023 938.139C266.256 944.969 257.361 952.146 245.988 957.136C234.614 962.127 222.111 964.731 210.172 969.285C203.629 971.78 197.304 974.749 191.253 978.337C170.985 990.322 154.854 1008.54 138.486 1025.93C125.764 1039.43 112.714 1052.54 98.9345 1064.58C88.6546 1073.58 75.5679 1082.54 63.2466 1082.27" stroke="url(#paint_linear_38_19225_0)" stroke-opacity="1.000000" stroke-width="3.000000"/>
		<path id="Vector" d="M29.0533 156.311C87.0689 159.881 135.224 196.983 185.001 228.966C191.672 233.246 198.379 237.454 205.105 241.533C216.096 248.2 227.36 254.684 237.53 262.425C246.006 268.891 253.57 276.085 261.444 282.952C277.429 296.904 294.817 309.58 312.223 322.13C352.249 350.962 393.241 379.886 437.423 402.817C456.032 412.488 475.498 420.539 491.629 434.108C549.954 483.122 561.875 571.331 540.294 640.78C541.807 664.932 540.568 690.304 529.467 712.215C519.552 731.795 501.927 745.983 483.226 759.771C471.707 768.277 451.785 776.382 433.723 783.704C424.427 787.475 415.842 791.227 409.827 795.507C392.64 807.692 381.084 835.668 368.526 848.91C363.222 854.501 358.483 860.53 353.361 866.158C326.659 895.537 298.225 922.384 268.297 948.448C260.022 955.661 251.583 963.238 240.52 968.538C229.456 973.838 217.372 976.534 205.761 981.142C199.382 983.674 193.258 986.679 187.389 990.249C167.704 1002.2 151.992 1020.03 136.099 1037.17C123.759 1050.46 111.165 1063.47 97.8592 1075.44C87.9256 1084.38 75.0393 1093.34 63.0097 1092.56" stroke="url(#paint_linear_38_19226_0)" stroke-opacity="1.000000" stroke-width="3.000000"/>
		<path id="Vector" d="M30.7302 165.254C86.9049 169.607 132.836 206.709 180.772 238.109C187.188 242.317 193.659 246.433 200.184 250.44C210.81 256.961 221.691 263.263 231.625 270.676C239.9 276.85 247.391 283.662 255.174 290.146C270.958 303.333 288.018 315.318 305.115 327.175C344.43 354.423 384.656 381.671 427.307 404.183C445.278 413.672 463.961 421.85 479.545 435.055C540.057 486.364 539.693 575.666 528.283 651.035C524.71 674.64 526.223 699.83 514.321 720.921C503.659 739.827 485.632 753.123 466.731 766.128C455.321 773.978 435.199 781.446 417.209 788.403C407.914 791.992 399.384 795.634 393.587 799.878C377.056 811.899 366.703 841.078 355.238 854.593C350.299 860.421 345.925 866.632 341.167 872.497C316.361 903.078 289.732 931.345 261.535 958.83C253.734 966.444 245.769 974.403 235.015 980.013C224.261 985.623 212.578 988.391 201.296 993.09C195.099 995.677 189.157 998.7 183.452 1002.25C164.368 1014.16 149.058 1031.59 133.656 1048.52C121.7 1061.63 109.561 1074.49 96.7292 1086.38C87.1419 1095.27 74.4743 1104.23 62.7181 1102.94" stroke="url(#paint_linear_38_19227_0)" stroke-opacity="1.000000" stroke-width="3.000000"/>
		<path id="Vector" d="M32.4253 174.197C86.7409 179.352 130.448 216.435 176.562 247.271C182.741 251.405 188.974 255.431 195.263 259.347C205.506 265.721 216.023 271.859 225.738 278.908C233.83 284.791 241.23 291.203 248.922 297.323C264.488 309.744 281.238 321.037 298.025 332.202C336.629 357.865 376.072 383.437 417.191 405.531C434.525 414.856 452.405 423.125 467.442 435.984C530.124 489.624 530.634 582.842 516.235 661.289C511.97 684.512 511.842 709.355 499.138 729.646C487.71 747.878 469.301 760.3 450.2 772.485C438.935 779.679 418.576 786.528 400.659 793.103C391.346 796.527 382.888 800.042 377.311 804.231C361.454 816.089 352.322 846.487 341.933 860.257C337.358 866.322 333.348 872.733 328.956 878.835C306.026 910.618 281.202 940.307 254.755 969.212C247.427 977.208 239.936 985.568 229.511 991.469C219.632 997.061 207.803 1000.25 196.848 1005.02C190.834 1007.64 185.074 1010.68 179.551 1014.24C161.051 1026.11 146.142 1043.16 131.25 1059.83C119.695 1072.74 107.993 1085.49 95.6355 1097.29C86.3946 1106.13 73.9275 1115.09 62.4629 1113.28" stroke="url(#paint_linear_38_19228_0)" stroke-opacity="1.000000" stroke-width="3.000000"/>
		<path id="Vector" d="M34.1204 183.122C86.595 189.06 128.079 226.143 172.352 256.396C178.294 260.458 184.29 264.392 190.36 268.217C200.239 274.446 210.391 280.402 219.869 287.123C227.761 292.714 235.106 298.725 242.689 304.462C258.054 316.119 274.494 326.72 290.953 337.193C328.846 361.271 367.523 385.168 407.112 406.842C423.807 415.985 440.886 424.364 455.394 436.877C520.227 492.866 521.831 590.091 504.26 671.489C499.32 694.366 497.534 718.827 484.028 738.297C471.853 755.855 453.061 767.403 433.741 778.787C422.604 785.344 402.008 791.536 384.201 797.747C374.869 800.989 366.466 804.414 361.126 808.548C345.925 820.26 338.032 851.879 328.7 865.885C324.508 872.187 320.845 878.799 316.798 885.119C295.746 918.104 272.744 949.213 248.011 979.521C241.176 987.918 234.122 996.66 224.024 1002.87C214.547 1008.7 203.027 1012.03 192.401 1016.9C186.569 1019.56 180.973 1022.63 175.632 1026.17C157.716 1038.01 143.225 1054.67 128.808 1071.1C117.635 1083.81 106.389 1096.44 94.5055 1108.17C85.6108 1116.96 73.3442 1125.91 62.1895 1123.61" stroke="url(#paint_linear_38_19229_0)" stroke-opacity="1.000000" stroke-width="3.000000"/>
		<path id="Vector" d="M35.8155 192.065C86.4492 198.804 125.691 235.887 168.16 265.539C173.846 269.528 179.624 273.371 185.457 277.105C194.971 283.188 204.741 288.962 214 295.337C221.71 300.637 228.964 306.247 236.437 311.62C251.601 322.512 267.714 332.42 283.881 342.201C321.063 364.695 358.957 386.916 397.014 408.153C413.072 417.115 429.348 425.602 443.31 437.787C510.238 496.181 513.191 597.468 492.249 681.707C486.635 704.274 483.19 728.316 468.882 746.985C455.941 763.869 436.785 774.579 417.264 785.125C406.273 791.063 385.44 796.6 367.706 802.428C358.355 805.506 350.026 808.803 344.904 812.883C330.377 824.43 323.743 857.27 315.45 871.55C311.64 878.106 308.323 884.882 304.641 891.457C285.467 925.645 264.287 958.174 241.285 989.903C234.924 998.682 228.344 1007.81 218.556 1014.33C209.461 1020.39 198.288 1023.87 187.972 1028.81C182.322 1031.52 176.908 1034.62 171.75 1038.13C154.435 1049.94 140.346 1066.22 126.42 1082.39C115.63 1094.91 104.84 1107.42 93.4119 1119.06C84.8636 1127.8 72.8157 1136.76 61.9343 1133.94" stroke="url(#paint_linear_38_19230_0)" stroke-opacity="1.000000" stroke-width="3.000000"/>
		<path id="Vector" d="M37.4924 201.008C86.2853 208.53 123.285 245.613 163.931 274.701C169.381 278.599 174.922 282.369 180.517 286.012C189.649 291.949 199.054 297.559 208.094 303.57C215.604 308.578 222.785 313.806 230.167 318.797C245.113 328.923 260.915 338.14 276.773 347.228C313.244 368.138 350.372 388.683 386.898 409.501C402.318 418.299 417.792 426.896 431.226 438.716C500.232 499.532 504.716 604.972 480.237 691.943C473.967 714.237 468.846 737.824 453.754 755.673C440.047 771.884 420.545 781.774 400.787 791.445C389.924 796.764 368.872 801.627 351.21 807.091C341.842 809.987 333.567 813.174 328.682 817.218C314.812 828.601 309.471 862.679 302.18 877.196C298.772 883.99 295.783 890.965 292.466 897.759C275.169 933.149 255.812 967.099 234.541 1000.25C228.654 1009.43 222.53 1018.94 213.088 1025.77C204.394 1032.07 193.531 1035.71 183.561 1040.72C178.093 1043.47 172.862 1046.58 167.868 1050.1C151.136 1061.87 137.466 1077.77 124.033 1093.7C113.625 1106.03 103.291 1118.42 92.3365 1129.99C84.1345 1138.67 72.2871 1147.63 61.6974 1144.3" stroke="url(#paint_linear_38_19231_0)" stroke-opacity="1.000000" stroke-width="3.000000"/>
		<path id="Vector" d="M39.1874 209.951C86.1394 218.274 120.916 255.339 159.721 283.844C164.933 287.669 170.237 291.348 175.614 294.9C184.381 300.674 193.422 306.12 202.225 311.802C209.552 316.52 216.661 321.346 223.933 325.955C238.679 335.316 254.153 343.84 269.701 352.237C305.461 371.544 341.805 390.431 376.819 410.831C391.601 419.446 406.273 428.152 419.159 439.627C490.207 502.902 496.422 612.604 468.244 702.161C461.3 724.236 454.501 747.295 438.626 764.343C424.172 779.861 404.286 788.968 384.31 797.765C373.593 802.483 352.286 806.654 334.733 811.754C325.347 814.468 317.145 817.564 312.479 821.534C299.283 832.772 295.236 868.053 288.948 882.824C285.941 889.873 283.261 897.031 280.308 904.043C264.889 940.635 247.355 976.006 227.816 1010.58C222.402 1020.14 216.734 1030.03 207.62 1037.19C199.309 1043.71 188.792 1047.51 179.132 1052.61C173.846 1055.4 168.797 1058.55 163.986 1062.05C147.837 1073.78 134.586 1089.3 121.627 1104.98C111.602 1117.11 101.705 1129.37 91.2429 1140.86C83.3871 1149.49 71.7585 1158.45 61.4422 1154.61" stroke="url(#paint_linear_38_19232_0)" stroke-opacity="1.000000" stroke-width="3.000000"/>
		<path id="Vector" d="M40.8825 218.894C85.9754 228.001 118.528 265.066 155.51 293.006C160.486 296.758 165.553 300.364 170.693 303.807C179.096 309.435 187.753 314.717 196.32 320.035C203.446 324.461 210.482 328.887 217.663 333.131C232.208 341.728 247.373 349.56 262.592 357.264C297.642 374.986 333.221 392.216 366.685 412.179C380.847 420.63 394.699 429.445 407.057 440.574C480.091 506.362 488.257 620.381 456.196 712.415C448.577 734.29 440.12 756.802 423.443 773.067C408.224 787.912 387.992 796.254 367.797 804.122C357.225 808.238 335.681 811.717 318.202 816.453C308.815 819.003 300.649 821.971 296.22 825.906C283.68 836.98 280.965 873.462 275.642 888.507C273.072 895.792 270.685 903.132 268.097 910.4C254.572 948.193 238.843 984.985 221.035 1020.96C216.114 1030.92 210.883 1041.17 202.098 1048.64C194.169 1055.4 183.98 1059.37 174.667 1064.54C169.545 1067.38 164.697 1070.55 160.049 1074.03C144.501 1085.73 131.651 1100.86 119.184 1116.29C109.543 1128.22 100.101 1140.37 90.1129 1151.77C82.6217 1160.35 71.1753 1169.31 61.1689 1164.96" stroke="url(#paint_linear_38_19233_0)" stroke-opacity="1.000000" stroke-width="3.000000"/>
		<path id="Vector" d="M42.5776 227.818C85.8295 237.727 116.159 274.774 151.318 302.131C156.039 305.81 160.869 309.325 165.808 312.677C173.828 318.159 182.121 323.259 190.469 328.231C197.413 332.366 204.358 336.409 211.448 340.271C225.774 348.103 240.629 355.242 255.538 362.255C289.877 378.392 324.672 393.947 356.624 413.49C370.148 421.759 383.198 430.684 395.009 441.467C469.976 509.823 480.274 628.249 444.221 722.615C435.91 744.344 425.776 766.237 408.333 781.719C392.33 795.853 371.752 803.485 351.338 810.424C340.894 813.976 319.113 816.708 301.725 821.097C292.32 823.447 284.227 826.325 280.017 830.222C268.151 841.132 266.766 878.817 262.41 894.153C260.259 901.675 258.181 909.216 255.958 916.702C244.311 955.697 230.404 993.91 214.328 1031.3C209.88 1041.65 205.087 1052.29 196.666 1060.08C189.12 1067.06 179.26 1071.19 170.274 1076.44C165.334 1079.31 160.65 1082.52 156.185 1085.98C141.221 1097.64 128.79 1112.39 116.815 1127.58C107.556 1139.33 98.57 1151.33 89.0557 1162.66C81.9108 1171.19 70.6832 1180.15 60.9501 1175.3" stroke="url(#paint_linear_38_19234_0)" stroke-opacity="1.000000" stroke-width="3.000000"/>
		<path id="Vector" d="M44.2545 236.761C85.6655 247.453 113.753 284.5 147.089 311.274C217.499 367.846 316.561 381.088 382.907 442.377C459.769 513.357 472.345 636.263 432.192 732.833C423.188 754.471 411.431 775.727 393.168 790.407C376.418 803.867 355.475 810.807 334.825 816.762C318.894 821.352 275.077 823.684 263.759 834.557C252.44 845.431 252.549 884.154 249.104 899.799C238.533 947.957 224.626 995.404 207.529 1041.65C203.556 1052.39 199.2 1063.4 191.125 1071.52C183.944 1078.73 174.448 1083.03 165.772 1088.35C132.763 1108.62 112.149 1143.41 87.8892 1173.59C81.0906 1182.06 70.0634 1191.04 60.622 1185.67" stroke="#70007F" stroke-opacity="1.000000" stroke-width="3.000000"/>
	</g>
</svg>
