<svg width="90.000000" height="90.000000" viewBox="0 0 90 90" fill="none" xmlns="http://www.w3.org/2000/svg" xmlns:xlink="http://www.w3.org/1999/xlink">
	<desc>
			Created with Pixso.
	</desc>
	<defs>
		<clipPath id="clip21_550">
			<rect id="Google Code" width="62.000000" height="62.000000" transform="translate(14.000000 14.000000)" fill="white" fill-opacity="0"/>
		</clipPath>
	</defs>
	<rect id="div.features-box-image" rx="10.000000" width="90.000000" height="90.000000" fill="#4795B1" fill-opacity="1.000000"/>
	<rect id="Google Code" width="62.000000" height="62.000000" transform="translate(14.000000 14.000000)" fill="#FFFFFF" fill-opacity="0"/>
	<g clip-path="url(#clip21_550)">
		<path id="Vector" d="M24.3333 22.2666C23.7852 22.2666 23.2596 22.4844 22.872 22.8719C22.4845 23.2595 22.2667 23.7852 22.2667 24.3333L22.2667 57.3999C22.2667 57.948 22.4845 58.4736 22.872 58.8612C23.2596 59.2488 23.7852 59.4666 24.3333 59.4666L38.796 59.4666L38.796 63.6L30.1821 63.6C29.6572 63.6 29.1517 63.8014 28.7694 64.161L24.6603 68.0159C23.9762 68.6544 24.4345 69.7999 25.3707 69.7999L64.6293 69.7999C65.5655 69.7999 66.0238 68.6525 65.3397 68.0118L61.2306 64.157C60.8462 63.7994 60.3428 63.6 59.8178 63.6L51.196 63.6L51.196 59.4666L65.6667 59.4666C66.2148 59.4666 66.7404 59.2488 67.1279 58.8612C67.5155 58.4736 67.7333 57.948 67.7333 57.3999L67.7333 24.3333C67.7333 23.7852 67.5155 23.2595 67.1279 22.8719C66.7404 22.4844 66.2148 22.2666 65.6667 22.2666L24.3333 22.2666ZM26.4 26.3999L63.6 26.3999L63.6 55.3333L26.4 55.3333L26.4 26.3999ZM38.7596 32.5797C38.2227 32.5957 37.7131 32.8202 37.3388 33.2054L31.1388 39.4054C30.7513 39.793 30.5338 40.3186 30.5338 40.8666C30.5338 41.4147 30.7513 41.9402 31.1388 42.3278L37.3388 48.5278C37.5292 48.7262 37.7573 48.8845 38.0097 48.9937C38.2621 49.1027 38.5338 49.1603 38.8087 49.1631C39.0837 49.1659 39.3564 49.1138 39.611 49.0099C39.8655 48.906 40.0968 48.7523 40.2913 48.5579C40.4857 48.3634 40.6393 48.1322 40.7433 47.8776C40.8472 47.623 40.8993 47.3502 40.8965 47.0753C40.8937 46.8004 40.8361 46.5287 40.727 46.2764C40.6179 46.0239 40.4595 45.7959 40.2612 45.6053L35.5224 40.8666L40.2612 36.1278C40.5598 35.8375 40.7638 35.4637 40.8464 35.0555C40.929 34.6473 40.8863 34.2238 40.724 33.8402C40.5616 33.4567 40.2873 33.1311 39.9368 32.9061C39.5862 32.6813 39.1759 32.5675 38.7596 32.5797ZM51.1798 32.5797C50.7687 32.5798 50.3669 32.7026 50.0259 32.9323C49.6849 33.1619 49.4201 33.4879 49.2654 33.8689C49.1107 34.2498 49.0731 34.6682 49.1574 35.0706C49.2418 35.4729 49.4442 35.8411 49.7388 36.1278L54.4776 40.8666L49.7388 45.6053C49.5405 45.7959 49.3821 46.0239 49.273 46.2764C49.1639 46.5287 49.1063 46.8004 49.1035 47.0753C49.1007 47.3502 49.1528 47.623 49.2567 47.8776C49.3607 48.1322 49.5143 48.3634 49.7087 48.5579C49.9032 48.7523 50.1345 48.906 50.389 49.0099C50.6436 49.1138 50.9163 49.1659 51.1913 49.1631C51.4662 49.1603 51.7379 49.1027 51.9902 48.9937C52.2427 48.8845 52.4708 48.7262 52.6612 48.5278L58.8612 42.3278C59.2486 41.9402 59.4662 41.4147 59.4662 40.8666C59.4662 40.3186 59.2486 39.793 58.8612 39.4054L52.6612 33.2054C52.4686 33.0074 52.2383 32.8501 51.9838 32.7426C51.7294 32.6351 51.456 32.5797 51.1798 32.5797Z" fill="#FFFFFF" fill-opacity="1.000000" fill-rule="nonzero"/>
	</g>
</svg>
