<svg width="14" height="32" viewBox="0 0 14 32" fill="none" xmlns="http://www.w3.org/2000/svg">
<path d="M6.9026 0.529419L7.73282 2.08875C7.91947 2.3765 8.12168 2.63121 8.35986 2.86841C9.05814 3.55798 9.70902 4.29396 10.3081 5.0713C11.7148 6.91839 12.6636 8.96962 13.3412 11.1881C13.7475 12.5432 13.9682 13.9334 13.9847 15.3391C14.0528 19.5418 12.6121 23.1504 9.70726 26.1495C9.23477 26.625 8.72432 27.0614 8.18098 27.4541C7.89323 27.4541 7.75712 27.2334 7.63852 27.0302C7.42254 26.6535 7.27879 26.2397 7.21466 25.8102C7.11259 25.3017 7.04551 24.7933 7.07856 24.2683V24.0311C7.05523 23.9806 6.8015 0.648993 6.9026 0.529419Z" fill="#599636"/>
<path d="M6.90265 0.477903C6.86863 0.409852 6.8346 0.461376 6.80058 0.494429C6.8171 0.834682 6.6985 1.13799 6.51282 1.42769C6.30867 1.71545 6.03841 1.93613 5.76718 2.17333C4.26035 3.47796 3.07432 5.05381 2.12453 6.81632C0.86073 9.18837 0.209389 11.7305 0.0246799 14.4069C-0.0598973 15.3722 0.329935 18.7786 0.634219 19.7615C1.46444 22.3707 2.95572 24.5571 4.88738 26.4547C5.36179 26.9116 5.86926 27.3355 6.39422 27.7428C6.54685 27.7428 6.56337 27.6067 6.59837 27.5056C6.66529 27.2893 6.7163 27.0683 6.751 26.8446L7.09125 24.3034L6.90265 0.477903Z" fill="#6CAC48"/>
<path d="M7.73282 28.4865C7.76684 28.0977 7.9535 27.7749 8.15668 27.4531C7.95253 27.3686 7.80087 27.2004 7.68227 27.0128C7.58 26.8351 7.49534 26.6479 7.42951 26.4538C7.1923 25.7422 7.14175 24.9956 7.0737 24.2684V23.828C6.98912 23.8961 6.97162 24.4716 6.97162 24.5571C6.92215 25.3257 6.82016 26.0899 6.66637 26.8446C6.61582 27.1498 6.58179 27.4541 6.39417 27.7253C6.39417 27.7594 6.39417 27.7934 6.41069 27.8439C6.71595 28.7422 6.79955 29.657 6.85108 30.5893V30.9295C6.85108 31.3359 6.83455 31.2503 7.17189 31.3864C7.30799 31.437 7.45965 31.4545 7.59575 31.5556C7.69782 31.5556 7.71435 31.471 7.71435 31.403L7.6638 30.844V29.2847C7.64727 29.0125 7.69782 28.7422 7.73185 28.4875L7.73282 28.4865Z" fill="#C2BFBF"/>
</svg>
