<svg width="45.466675" height="47.533325" viewBox="0 0 45.4667 47.5333" fill="none" xmlns="http://www.w3.org/2000/svg" xmlns:xlink="http://www.w3.org/1999/xlink">
	<desc>
			Created with Pixso.
	</desc>
	<defs/>
	<path id="Vector" d="M2.06665 0C1.51855 0 0.99292 0.217773 0.605347 0.605347C0.217773 0.99292 0 1.51855 0 2.06665L0 35.1333C0 35.6814 0.217773 36.207 0.605347 36.5946C0.99292 36.9822 1.51855 37.2 2.06665 37.2L16.5293 37.2L16.5293 41.3334L7.91553 41.3334C7.3905 41.3334 6.88501 41.5348 6.50269 41.8944L2.39368 45.7493C1.70959 46.3878 2.16785 47.5333 3.104 47.5333L42.3627 47.5333C43.2988 47.5333 43.7571 46.3859 43.073 45.7452L38.964 41.8904C38.5795 41.5328 38.076 41.3334 37.5511 41.3334L28.9293 41.3334L28.9293 37.2L43.4 37.2C43.9481 37.2 44.4738 36.9822 44.8613 36.5946C45.2489 36.207 45.4666 35.6814 45.4667 35.1333L45.4667 2.06665C45.4666 1.51855 45.2489 0.99292 44.8613 0.605347C44.4738 0.217773 43.9481 0 43.4 0L2.06665 0ZM4.1333 4.1333L41.3334 4.1333L41.3334 33.0667L4.1333 33.0667L4.1333 4.1333ZM16.4929 10.3131C15.9561 10.3291 15.4464 10.5536 15.0721 10.9388L8.87219 17.1388C8.48474 17.5264 8.26709 18.052 8.26709 18.6C8.26709 19.1481 8.48474 19.6736 8.87219 20.0612L15.0721 26.2612C15.2626 26.4596 15.4907 26.6179 15.743 26.7271C15.9955 26.8361 16.2671 26.8937 16.542 26.8965C16.817 26.8993 17.0897 26.8472 17.3444 26.7433C17.5989 26.6394 17.8302 26.4857 18.0245 26.2913C18.219 26.0968 18.3727 25.8656 18.4766 25.611C18.5806 25.3564 18.6327 25.0836 18.6299 24.8087C18.6271 24.5338 18.5695 24.2621 18.4603 24.0098C18.3512 23.7573 18.1929 23.5293 17.9945 23.3387L13.2557 18.6L17.9945 13.8612C18.2932 13.5709 18.4972 13.1971 18.5797 12.7889C18.6624 12.3807 18.6196 11.9572 18.4573 11.5736C18.295 11.1901 18.0206 10.8645 17.67 10.6395C17.3196 10.4147 16.9093 10.3009 16.4929 10.3131ZM28.9132 10.3131C28.5021 10.3132 28.1002 10.436 27.7593 10.6656C27.4182 10.8953 27.1534 11.2213 26.9988 11.6023C26.844 11.9832 26.8064 12.4016 26.8907 12.804C26.9751 13.2063 27.1775 13.5745 27.4722 13.8612L32.2109 18.6L27.4722 23.3387C27.2738 23.5293 27.1155 23.7573 27.0063 24.0098C26.8972 24.2621 26.8396 24.5338 26.8368 24.8087C26.834 25.0836 26.8861 25.3564 26.99 25.611C27.094 25.8656 27.2477 26.0968 27.4421 26.2913C27.6365 26.4857 27.8678 26.6394 28.1223 26.7433C28.377 26.8472 28.6497 26.8993 28.9246 26.8965C29.1996 26.8937 29.4712 26.8361 29.7236 26.7271C29.976 26.6179 30.2041 26.4596 30.3945 26.2612L36.5945 20.0612C36.9819 19.6736 37.1996 19.1481 37.1996 18.6C37.1996 18.052 36.9819 17.5264 36.5945 17.1388L30.3945 10.9388C30.2019 10.7408 29.9716 10.5835 29.7172 10.476C29.4628 10.3685 29.1893 10.3131 28.9132 10.3131Z" fill="#FFFFFF" fill-opacity="1.000000" fill-rule="nonzero"/>
</svg>
