<svg width="399" height="467" viewBox="0 0 399 467" fill="none" xmlns="http://www.w3.org/2000/svg">
<path fill-rule="evenodd" clip-rule="evenodd" d="M398.469 1.58679L391.392 0.500488L392.212 2.60463C388.157 4.27075 384.296 6.03119 380.62 7.87546C368.762 13.4639 358.694 19.7522 350.152 26.4743C323.257 46.2834 309.624 69.292 302.91 89.5467C298.104 104.043 296.848 117.11 296.793 126.556C296.766 131.279 297.039 135.098 297.32 137.74C297.416 138.645 297.513 139.411 297.599 140.029C264.809 145.596 241.879 165.616 226.623 185.816C217.405 198.023 210.978 210.306 206.856 219.537C204.794 224.153 203.308 228.008 202.337 230.711C201.851 232.063 201.494 233.126 201.258 233.853C201.14 234.217 201.052 234.496 200.993 234.685C200.964 234.78 200.942 234.852 200.928 234.901L200.911 234.956L200.907 234.971L200.906 234.974C200.905 234.975 200.905 234.976 201.292 235.09L200.905 234.976C200.885 235.044 200.877 235.112 200.88 235.179C106.435 255.65 56.4394 310.86 30.0169 362.153C16.0885 389.192 8.71271 415.136 4.81846 434.319C2.87116 443.912 1.79391 451.817 1.20336 457.326C0.908086 460.081 0.734467 462.237 0.634612 463.706C0.584684 464.441 0.553196 465.003 0.534163 465.383C0.524645 465.573 0.518241 465.718 0.514203 465.815L0.509826 465.925L0.508792 465.954L0.508534 465.961C0.508471 465.963 0.508436 465.964 1.1281 465.985L0.508436 465.964C0.497065 466.306 0.765278 466.593 1.10751 466.604C1.44974 466.616 1.73639 466.347 1.74776 466.005L1.1281 465.985C1.74776 466.005 1.74777 466.005 1.74781 466.003L1.74803 465.997L1.74897 465.971L1.75314 465.866C1.75704 465.773 1.76328 465.632 1.77262 465.445C1.79129 465.073 1.82235 464.517 1.87176 463.79C1.97059 462.336 2.14284 460.196 2.43631 457.458C3.02325 451.982 4.09499 444.116 6.03368 434.566C9.9114 415.464 17.2556 389.634 31.1193 362.721C45.168 335.448 65.9136 307.056 96.5467 283.422C66.9418 307.038 46.8241 335.353 33.1646 362.555C19.6454 389.478 12.4531 415.306 8.64009 434.402C6.73343 443.951 5.67125 451.819 5.08562 457.303C4.7928 460.045 4.6191 462.191 4.51855 463.653C4.46828 464.384 4.43629 464.944 4.41684 465.322C4.40711 465.511 4.40053 465.655 4.39635 465.752L4.39182 465.861L4.39074 465.89L4.39047 465.897C4.39041 465.899 4.39037 465.9 5 465.921L4.39037 465.9C4.37856 466.237 4.64192 466.519 4.97861 466.531C5.3153 466.543 5.59781 466.279 5.60963 465.943L5 465.921C5.60963 465.943 5.60964 465.942 5.60968 465.941L5.60991 465.935L5.61089 465.909L5.61523 465.804C5.61926 465.711 5.62569 465.571 5.63523 465.385C5.65433 465.014 5.6859 464.461 5.73568 463.737C5.83524 462.289 6.00763 460.158 6.29873 457.433C6.88094 451.981 7.93791 444.149 9.83648 434.641C13.634 415.622 20.7965 389.904 34.2548 363.102C48.1925 335.347 68.8831 306.425 99.594 282.576C69.9116 306.422 49.8666 335.289 36.3419 362.989C23.2502 389.803 16.2673 415.523 12.5568 434.539C10.7014 444.047 9.6638 451.882 9.08992 457.342C8.80297 460.072 8.63195 462.208 8.5326 463.664C8.48293 464.392 8.45118 464.949 8.43182 465.326C8.42214 465.514 8.41555 465.657 8.41138 465.753L8.40683 465.862L8.40575 465.89L8.40548 465.897C8.40542 465.899 8.40538 465.9 8.92081 465.918L8.40538 465.9C8.39369 466.228 8.65043 466.504 8.97884 466.516C9.30724 466.527 9.58294 466.271 9.59463 465.942L9.10983 465.925C9.59463 465.942 9.59465 465.942 9.59469 465.941L9.59492 465.934L9.59591 465.909L9.60026 465.804C9.6043 465.711 9.61074 465.571 9.62025 465.387C9.63928 465.017 9.67064 464.466 9.71985 463.745C9.81826 462.303 9.98807 460.181 10.2734 457.466C10.8441 452.036 11.8769 444.237 13.7248 434.767C17.421 415.825 24.3764 390.209 37.4113 363.511C51.3311 335.001 72.1831 305.256 103.413 281.08C73.1846 305.32 52.9732 335.114 39.4723 363.662C26.8122 390.433 20.0504 416.11 16.4532 435.094C14.6544 444.586 13.6464 452.408 13.088 457.858C12.8088 460.583 12.642 462.716 12.545 464.169C12.4964 464.895 12.4653 465.452 12.4463 465.827C12.4368 466.015 12.4304 466.158 12.4263 466.254L12.4218 466.362L12.4207 466.39L12.4205 466.398C12.4204 466.399 12.4204 466.4 13 466.421L12.4204 466.4C12.4091 466.72 12.6595 466.989 12.9796 467C13.2997 467.012 13.5684 466.761 13.5797 466.441L13 466.421C13.5797 466.441 13.5797 466.441 13.5797 466.439L13.5799 466.433L13.5809 466.407L13.5852 466.303C13.5892 466.21 13.5955 466.07 13.6049 465.886C13.6235 465.516 13.6543 464.966 13.7024 464.246C13.7986 462.806 13.9643 460.687 14.242 457.976C14.7974 452.554 15.801 444.766 17.5929 435.31C21.1771 416.395 27.9135 390.817 40.5209 364.158C53.3812 336.964 72.3482 308.647 100.315 285.126C73.2341 308.653 54.8196 336.933 42.3102 364.077C30.021 390.744 23.4272 416.317 19.9052 435.223C18.1441 444.677 17.1506 452.466 16.5973 457.894C16.3206 460.608 16.154 462.732 16.0565 464.178C16.0077 464.901 15.9763 465.456 15.9569 465.829C15.9473 466.016 15.9407 466.158 15.9365 466.254L15.9319 466.362L15.9308 466.39L15.9305 466.397C15.9304 466.399 15.9304 466.4 16.4236 466.418L15.9304 466.4C15.9188 466.714 16.1644 466.979 16.479 466.99C16.7936 467.002 17.058 466.756 17.0696 466.442L16.6038 466.424C17.0696 466.442 17.0696 466.441 17.0697 466.44L17.0699 466.434L17.0709 466.408L17.0754 466.304C17.0794 466.211 17.0859 466.072 17.0954 465.888C17.1145 465.52 17.1456 464.972 17.1939 464.255C17.2906 462.82 17.4562 460.71 17.7314 458.009C18.2819 452.609 19.2712 444.851 21.0259 435.432C24.5357 416.592 31.1058 391.113 43.3455 364.555C56.0087 337.077 74.7369 308.447 102.426 284.812C75.6053 308.46 57.4277 337.062 45.1205 364.493C33.2033 391.054 26.7856 416.525 23.3468 435.353C21.6272 444.769 20.6521 452.525 20.1068 457.93C19.8341 460.633 19.6688 462.748 19.5717 464.188C19.5231 464.908 19.4916 465.46 19.4722 465.832C19.4625 466.018 19.4558 466.16 19.4516 466.255L19.4469 466.362L19.4458 466.39L19.4455 466.397C19.4454 466.399 19.4454 466.4 20 466.421L19.4454 466.4C19.4338 466.706 19.6728 466.964 19.9791 466.975C20.2854 466.987 20.543 466.748 20.5546 466.442L20 466.421C20.5546 466.442 20.5546 466.441 20.5547 466.44L20.5549 466.434L20.556 466.408L20.5604 466.304C20.5646 466.212 20.5711 466.073 20.5807 465.89C20.5998 465.523 20.631 464.977 20.6792 464.263C20.7755 462.834 20.9398 460.731 21.2112 458.042C21.7539 452.662 22.7252 444.935 24.4388 435.553C27.8663 416.786 34.262 391.406 46.1332 364.947C58.4394 337.519 76.6248 308.938 103.486 285.358C77.4671 308.953 59.8282 337.513 47.8835 364.897C36.3424 391.356 30.1114 416.726 26.7653 435.479C25.0921 444.857 24.1398 452.582 23.6057 457.966C23.3387 460.657 23.1762 462.763 23.0804 464.198C23.0325 464.915 23.0013 465.464 22.9821 465.835C22.9724 466.02 22.9658 466.161 22.9615 466.256L22.9569 466.363L22.9558 466.39L22.9555 466.397C22.9554 466.399 22.9554 466.4 23.5 466.421L22.9554 466.4C22.944 466.701 23.1785 466.954 23.4793 466.965C23.7801 466.977 24.0332 466.742 24.0446 466.441L23.5005 466.421C24.0446 466.441 24.0446 466.441 24.0447 466.44L24.0449 466.433L24.046 466.408L24.0504 466.304C24.0546 466.212 24.0611 466.074 24.0706 465.891C24.0896 465.526 24.1205 464.982 24.168 464.27C24.2631 462.847 24.4246 460.752 24.6904 458.073C25.2221 452.714 26.1707 445.017 27.8383 435.671C31.1739 416.976 37.3845 391.693 48.8826 365.333C60.8965 337.79 78.6768 309.082 104.978 285.48C79.4986 309.104 62.262 337.799 50.6144 365.297C39.4503 391.655 33.414 416.925 30.1684 435.604C28.5454 444.945 27.6199 452.639 27.1 458.001C26.84 460.682 26.6815 462.779 26.5878 464.208C26.541 464.922 26.5105 465.469 26.4916 465.838C26.4821 466.023 26.4756 466.163 26.4714 466.257L26.4669 466.364L26.4658 466.391L26.4655 466.398C26.4654 466.4 26.4654 466.401 27 466.421L26.4654 466.401C26.4543 466.696 26.6846 466.944 26.9799 466.955C27.2751 466.966 27.5235 466.736 27.5346 466.441L27 466.421C27.5346 466.441 27.5347 466.44 27.5347 466.439L27.5349 466.433L27.536 466.407L27.5404 466.304C27.5445 466.212 27.5509 466.075 27.5602 465.893C27.5788 465.529 27.6091 464.987 27.6556 464.278C27.7485 462.859 27.9062 460.773 28.165 458.104C28.6826 452.766 29.6048 445.098 31.2226 435.787C34.4585 417.164 40.4757 391.977 51.5997 365.715C62.953 338.911 79.6189 310.999 104.07 287.799C80.3314 311.024 64.1208 338.932 53.0638 365.697C42.2174 391.952 36.3225 417.123 33.1388 435.728C31.5469 445.032 30.6324 452.695 30.1159 458.035C29.8577 460.705 29.6989 462.794 29.6046 464.217C29.5575 464.928 29.5264 465.473 29.5072 465.841C29.502 465.94 29.4976 466.027 29.494 466.101L29.4866 466.257L29.4819 466.364L29.4808 466.391L29.4805 466.398C29.4804 466.399 29.4804 466.4 30 466.421L29.4804 466.4C29.4691 466.687 29.6926 466.929 29.9796 466.94C30.2666 466.952 30.5083 466.728 30.5196 466.441L30 466.421C30.5196 466.441 30.5196 466.441 30.5197 466.439L30.5199 466.433L30.521 466.408L30.5255 466.305L30.5332 466.144C30.5366 466.073 30.5408 465.99 30.5458 465.895C30.5648 465.532 30.5955 464.992 30.6423 464.286C30.7359 462.873 30.8939 460.794 31.1511 458.135C31.6655 452.817 32.5768 445.179 34.164 435.903C37.3386 417.351 43.2159 392.259 54.025 366.094C65.5296 338.245 82.6126 309.197 107.96 285.519C83.3937 309.228 66.8507 338.282 55.7238 366.093C45.2597 392.248 39.5772 417.32 36.5104 435.852C34.9769 445.118 34.097 452.752 33.6005 458.07C33.3522 460.73 33.1998 462.81 33.1093 464.227C33.0641 464.936 33.0344 465.478 33.016 465.844C33.0068 466.027 33.0004 466.166 32.9963 466.259L32.9918 466.365L32.9907 466.392L32.9904 466.399C32.9904 466.401 32.9903 466.401 33.5 466.421L32.9903 466.401C32.9798 466.683 33.1993 466.92 33.4808 466.93C33.7623 466.941 33.999 466.721 34.0096 466.44L33.5005 466.421C34.0096 466.44 34.0097 466.439 34.0097 466.438L34.0099 466.432L34.011 466.406L34.0153 466.304C34.018 466.242 34.0218 466.16 34.0267 466.058L34.0347 465.895C34.0529 465.534 34.0824 464.996 34.1273 464.292C34.2171 462.885 34.3688 460.814 34.6161 458.165C35.1107 452.867 35.9876 445.258 37.5167 436.018C40.5752 417.537 46.2414 392.54 56.6708 366.472C67.7839 338.696 84.2959 309.723 108.811 286.115C85.0586 309.757 69.0849 338.741 58.3542 366.479C48.2743 392.535 42.8116 417.511 39.8686 435.972C38.397 445.203 37.5551 452.807 37.081 458.105C36.8439 460.754 36.6988 462.826 36.613 464.238C36.57 464.943 36.5419 465.484 36.5245 465.848C36.5158 466.03 36.5098 466.169 36.5059 466.261L36.5017 466.367L36.5007 466.394L36.5004 466.4C36.5003 466.402 36.5003 466.403 36.9301 466.418L36.5003 466.403C36.4905 466.679 36.7063 466.911 36.9823 466.92C37.2582 466.93 37.4899 466.714 37.4997 466.438L37.0878 466.424C37.4997 466.438 37.4997 466.438 37.4997 466.437L37.5 466.43L37.5009 466.405L37.505 466.303L37.5082 466.229L37.5127 466.127C37.5156 466.06 37.5192 465.983 37.5234 465.896C37.5406 465.536 37.5685 465 37.6111 464.298C37.6965 462.896 37.8409 460.833 38.077 458.194C38.5493 452.916 39.3886 445.335 40.8562 436.129C43.7916 417.716 49.2392 392.812 59.2868 366.84C79.3848 314.888 117.852 258.742 191.362 241.615C191.561 241.569 191.704 241.41 191.74 241.222C192.34 241.081 192.942 240.942 193.546 240.806C193.752 240.759 193.901 240.594 193.936 240.397C194.555 240.256 195.176 240.118 195.799 239.982C196.003 239.937 196.153 239.778 196.196 239.586C196.841 239.444 197.489 239.304 198.139 239.167C198.348 239.123 198.503 238.962 198.549 238.768C199.213 238.626 199.879 238.487 200.548 238.35C200.762 238.307 200.921 238.143 200.969 237.944C201.663 237.8 202.361 237.659 203.06 237.521C203.275 237.478 203.436 237.318 203.489 237.12C204.204 236.978 204.922 236.837 205.643 236.699C205.859 236.658 206.023 236.5 206.082 236.303C206.828 236.159 207.576 236.017 208.328 235.879C208.548 235.838 208.717 235.677 208.778 235.476C209.555 235.331 210.335 235.189 211.118 235.049C211.348 235.008 211.523 234.84 211.584 234.631C212.385 234.486 213.188 234.345 213.995 234.206C214.227 234.165 214.406 233.999 214.473 233.789C215.304 233.644 216.138 233.502 216.975 233.362C217.278 233.312 217.493 233.049 217.493 232.751L217.497 232.737C217.51 232.695 217.53 232.632 217.556 232.549C217.609 232.383 217.688 232.135 217.795 231.812C218.007 231.164 218.328 230.213 218.759 229.001C219.621 226.576 220.925 223.106 222.689 218.932C226.217 210.582 231.585 199.422 238.943 188.171C253.672 165.648 276.298 142.88 308.015 141.391C308.152 141.385 308.273 141.324 308.359 141.231C308.572 141.221 308.785 141.212 308.998 141.204C309.14 141.198 309.266 141.135 309.355 141.038C309.573 141.029 309.792 141.022 310.011 141.015C310.15 141.011 310.275 140.952 310.366 140.86C310.596 140.853 310.827 140.847 311.058 140.842C311.201 140.839 311.331 140.779 311.425 140.685C311.66 140.68 311.896 140.675 312.132 140.672C312.279 140.67 312.412 140.609 312.509 140.513C312.755 140.509 313.002 140.507 313.25 140.505C313.396 140.504 313.529 140.447 313.627 140.354C313.76 140.353 313.893 140.352 314.026 140.352C314.149 140.351 314.272 140.351 314.395 140.351C314.544 140.352 314.679 140.295 314.781 140.202C315.047 140.202 315.314 140.203 315.582 140.205C315.732 140.206 315.869 140.15 315.973 140.058C316.252 140.06 316.532 140.063 316.812 140.067C316.968 140.07 317.111 140.012 317.219 139.915C317.505 139.919 317.792 139.924 318.079 139.931C318.238 139.934 318.385 139.876 318.496 139.778C318.625 139.781 318.753 139.784 318.882 139.788C318.985 139.79 319.088 139.793 319.19 139.796L319.387 139.801C319.729 139.811 320.015 139.542 320.025 139.2C320.035 138.857 319.766 138.572 319.424 138.562C319.412 138.562 319.401 138.561 319.389 138.561C319.478 138.451 319.52 138.304 319.491 138.154L319.112 138.226C319.491 138.154 319.491 138.154 319.491 138.153L319.491 138.151L319.488 138.139L319.479 138.089C319.471 138.046 319.459 137.979 319.444 137.891C319.413 137.715 319.369 137.452 319.314 137.107C319.204 136.417 319.054 135.397 318.891 134.086C318.567 131.463 318.194 127.671 318.004 123.006C317.624 113.675 317.975 100.857 320.897 86.9065C324.09 71.6663 330.347 55.0793 342.073 40.2037C345.468 36.0121 349.298 31.9517 353.616 28.0885C362.634 20.2232 373.684 13.1339 387.204 7.35604C387.281 7.32345 387.345 7.27479 387.396 7.21569C387.665 7.10058 387.936 6.98595 388.207 6.87181C388.333 6.81891 388.428 6.72349 388.483 6.60926C389.975 5.96942 391.492 5.3393 393.036 4.71935L393.991 7.17149L398.469 1.58679ZM318.749 93.0219C316.63 104.916 316.316 115.707 316.59 123.859C316.747 128.57 317.101 132.398 317.415 135.047C317.572 136.371 317.719 137.4 317.827 138.097C317.852 138.258 317.874 138.402 317.895 138.527C318.128 138.531 318.361 138.535 318.595 138.541C318.553 138.483 318.523 138.415 318.509 138.34L318.939 138.259C318.509 138.34 318.509 138.34 318.508 138.339L318.508 138.335L318.505 138.322L318.495 138.269C318.487 138.222 318.475 138.154 318.459 138.063C318.427 137.882 318.382 137.614 318.326 137.264C318.215 136.563 318.063 135.532 317.899 134.208C317.571 131.561 317.196 127.742 317.005 123.047C316.681 115.085 316.885 104.595 318.749 93.0219ZM316.819 138.252C316.833 138.345 316.847 138.433 316.86 138.514C316.541 138.512 316.222 138.511 315.905 138.511C315.894 138.445 315.883 138.374 315.871 138.298C315.862 138.235 315.852 138.169 315.841 138.1C315.737 137.405 315.595 136.378 315.446 135.057C315.147 132.415 314.818 128.594 314.7 123.889C314.465 114.477 315.073 101.537 318.446 87.4178C319.805 81.7251 321.615 75.8408 323.999 69.9186C321.796 75.7502 320.129 81.5459 318.882 87.1586C315.723 101.368 315.252 114.407 315.57 123.893C315.729 128.636 316.085 132.493 316.402 135.166C316.561 136.503 316.709 137.544 316.819 138.252ZM326.711 61.3265C322.155 70.1371 319.052 79.0142 316.973 87.4604C313.495 101.591 312.884 114.52 313.143 123.916C313.272 128.614 313.618 132.426 313.932 135.062C314.089 136.38 314.238 137.404 314.347 138.097C314.373 138.256 314.396 138.397 314.416 138.521L314.613 138.519L314.853 138.516C314.84 138.435 314.827 138.347 314.813 138.254C314.707 137.547 314.563 136.508 314.412 135.174C314.11 132.505 313.779 128.653 313.661 123.915C313.423 114.438 314.035 101.404 317.434 87.1759C319.432 78.8115 322.394 70.0347 326.711 61.3265ZM313.29 138.263C313.306 138.362 313.321 138.455 313.335 138.541C313.036 138.547 312.739 138.555 312.441 138.564C312.421 138.43 312.397 138.273 312.371 138.094C312.271 137.396 312.136 136.364 311.997 135.036C311.719 132.38 311.428 128.537 311.376 123.8C311.273 114.326 312.126 101.285 315.952 87.0167C316.076 86.554 316.203 86.0899 316.334 85.6247C316.197 86.1528 316.064 86.6795 315.934 87.2045C312.428 101.451 311.812 114.479 312.073 123.945C312.203 128.679 312.553 132.524 312.87 135.189C313.029 136.521 313.179 137.558 313.29 138.263ZM316.28 81.9563C315.77 83.511 315.297 85.0546 314.858 86.5842C310.686 101.112 309.597 114.389 309.551 124.032C309.528 128.854 309.766 132.765 310.009 135.469C310.131 136.82 310.254 137.87 310.346 138.58L310.355 138.647C310.684 138.631 311.014 138.617 311.345 138.603C311.329 138.496 311.311 138.378 311.293 138.249C311.19 137.538 311.053 136.492 310.913 135.149C310.632 132.463 310.339 128.586 310.286 123.812C310.182 114.265 311.042 101.12 314.899 86.7342C315.323 85.1554 315.782 83.5617 316.28 81.9563ZM312.521 86.8998C316.355 73.759 322.871 59.537 333.733 46.0119C323.692 59.3128 317.52 73.2907 313.791 86.2776C309.584 100.926 308.487 114.308 308.441 124.027C308.418 128.887 308.658 132.834 308.904 135.568C309.026 136.925 309.15 137.984 309.243 138.708C308.993 138.722 308.743 138.738 308.494 138.754C308.466 138.586 308.431 138.363 308.39 138.089C308.286 137.392 308.147 136.362 308.005 135.035C307.723 132.381 307.433 128.539 307.404 123.799C307.347 114.317 308.336 101.247 312.521 86.8998ZM333.789 44.1368C329.981 48.3348 326.629 52.6024 323.681 56.8881C316.964 67.2423 312.541 77.7173 309.676 87.5729C305.496 101.952 304.63 115.026 304.808 124.506C304.898 129.245 305.248 133.084 305.576 135.735C305.739 137.06 305.898 138.088 306.014 138.784L306.041 138.944C306.477 138.905 306.913 138.869 307.352 138.836C307.336 138.735 307.317 138.62 307.298 138.491L307.277 138.356L307.262 138.256C307.156 137.545 307.015 136.499 306.872 135.156C306.586 132.469 306.293 128.588 306.264 123.805C306.206 114.241 307.204 101.057 311.427 86.5803C315.41 72.9241 322.262 58.1269 333.789 44.1368ZM302.893 124.86C302.865 116.518 303.722 105.374 307.045 92.9862C304.128 105.223 303.492 116.238 303.648 124.528C303.739 129.312 304.092 133.191 304.424 135.877C304.59 137.22 304.751 138.265 304.87 138.975L304.883 139.052C304.56 139.084 304.237 139.118 303.915 139.153L303.904 139.085C303.795 138.393 303.649 137.369 303.502 136.05C303.207 133.41 302.908 129.585 302.893 124.86ZM319.06 61.8389C313.349 70.7886 309.331 79.7207 306.53 88.1821C301.737 102.665 300.506 115.787 300.472 125.287C300.456 130.037 300.739 133.879 301.025 136.531C301.16 137.78 301.296 138.765 301.401 139.455C301.843 139.397 302.286 139.341 302.732 139.288L302.729 139.27C302.617 138.561 302.468 137.52 302.319 136.181C302.02 133.504 301.718 129.637 301.702 124.864C301.671 115.32 302.786 102.146 307.37 87.6252C309.991 79.3231 313.744 70.5861 319.06 61.8389ZM299.812 136.661C299.948 137.919 300.085 138.916 300.193 139.622C299.734 139.688 299.278 139.757 298.823 139.829C298.74 139.229 298.646 138.486 298.553 137.609C298.277 135.008 298.006 131.235 298.033 126.563C298.087 117.219 299.33 104.285 304.087 89.9371C306.648 82.2114 310.229 74.0702 315.198 65.8546C310.902 73.3155 307.716 80.716 305.372 87.7985C300.53 102.429 299.286 115.684 299.252 125.283C299.236 130.083 299.521 133.97 299.812 136.661ZM216.088 232.254L216.09 232.247C216.143 232.076 216.222 231.823 216.327 231.493C216.538 230.834 216.855 229.868 217.283 228.639C218.137 226.181 219.431 222.669 221.19 218.447C224.708 210.005 230.089 198.719 237.543 187.349C237.701 187.108 237.86 186.867 238.02 186.625C237.791 186.964 237.563 187.302 237.337 187.64C229.751 198.995 224.29 210.29 220.725 218.747C218.942 222.975 217.635 226.492 216.773 228.95C216.343 230.179 216.023 231.144 215.812 231.8C215.789 231.873 215.767 231.942 215.746 232.007C215.707 232.128 215.673 232.235 215.644 232.329L215.887 232.288L216.088 232.254ZM219.316 219.075C221.45 214.038 224.256 208.009 227.785 201.562C224.465 207.739 221.806 213.504 219.766 218.343C217.975 222.593 216.659 226.131 215.792 228.607C215.358 229.845 215.036 230.818 214.822 231.482C214.715 231.814 214.635 232.069 214.582 232.242C214.555 232.328 214.535 232.393 214.522 232.438L214.507 232.488L214.503 232.501L214.502 232.504C214.502 232.505 214.502 232.505 214.544 232.518L214.543 232.518L214.501 232.506L214.499 232.515L214.496 232.526L214.241 232.57C214.268 232.484 214.298 232.391 214.33 232.291C214.544 231.626 214.867 230.649 215.304 229.405C216.177 226.915 217.504 223.354 219.316 219.075ZM234.332 187.309C234.636 186.87 234.943 186.431 235.253 185.992C235.006 186.349 234.762 186.706 234.52 187.063C226.594 198.747 220.954 210.394 217.297 219.118C215.468 223.481 214.133 227.115 213.256 229.66C212.817 230.933 212.492 231.933 212.277 232.616C212.241 232.732 212.207 232.839 212.177 232.937L211.776 233.009C211.799 232.935 211.824 232.856 211.85 232.772C212.064 232.094 212.388 231.098 212.828 229.829C213.708 227.29 215.049 223.659 216.894 219.3C220.585 210.579 226.287 198.95 234.332 187.309ZM210.545 233.235L210.548 233.225C210.574 233.139 210.606 233.033 210.645 232.909C210.686 232.774 210.735 232.617 210.791 232.439C211.008 231.752 211.336 230.745 211.779 229.466C212.666 226.906 214.016 223.253 215.872 218.868C218.97 211.548 223.479 202.185 229.596 192.473C223.229 202.369 218.566 211.949 215.383 219.42C213.509 223.821 212.149 227.488 211.258 230.052C210.813 231.335 210.485 232.341 210.269 233.026C210.238 233.125 210.209 233.218 210.182 233.303L210.545 233.235ZM213.845 219.348C217.587 210.636 223.359 199.081 231.541 187.499C223.621 198.975 218 210.369 214.334 218.973C212.448 223.402 211.079 227.093 210.181 229.679C209.732 230.972 209.401 231.989 209.182 232.684C209.072 233.031 208.99 233.298 208.936 233.478L208.917 233.542L208.487 233.624C208.534 233.47 208.593 233.281 208.663 233.058C208.881 232.368 209.213 231.353 209.663 230.061C210.564 227.476 211.941 223.781 213.845 219.348ZM207.389 233.837L207.226 233.79C207.218 233.817 207.212 233.845 207.208 233.872L206.894 233.934L206.638 233.985L206.307 234.051L206.363 233.876L206.403 233.75C206.628 233.049 206.969 232.019 207.433 230.707C208.361 228.084 209.78 224.334 211.742 219.838C215.668 210.842 221.765 198.865 230.45 186.932C231.195 185.909 231.958 184.886 232.742 183.865C232.163 184.644 231.595 185.424 231.038 186.204C222.561 198.079 216.611 209.97 212.779 218.891C210.863 223.352 209.476 227.072 208.567 229.68C208.113 230.983 207.778 232.008 207.557 232.709C207.446 233.059 207.364 233.328 207.309 233.511C207.285 233.588 207.267 233.65 207.254 233.695L207.247 233.718L207.231 233.771L207.227 233.785L207.226 233.789C207.226 233.789 207.226 233.789 207.229 233.79C207.232 233.791 207.239 233.793 207.251 233.797L207.301 233.811L207.39 233.837L207.389 233.837ZM209.871 220.152C213.772 211.301 219.779 199.604 228.3 187.886C220.181 199.354 214.42 210.727 210.652 219.362C208.676 223.888 207.247 227.664 206.311 230.311C205.843 231.634 205.498 232.676 205.27 233.387C205.156 233.743 205.071 234.016 205.014 234.201L204.979 234.318C204.771 234.36 204.564 234.402 204.357 234.445C204.378 234.38 204.4 234.312 204.423 234.24C204.652 233.53 204.999 232.487 205.472 231.158C206.418 228.501 207.866 224.704 209.871 220.152ZM202.99 234.729L203.001 234.692C203.059 234.504 203.145 234.227 203.262 233.867C203.494 233.146 203.845 232.091 204.322 230.75C205.277 228.068 206.735 224.243 208.755 219.661C212.793 210.497 219.077 198.296 228.061 186.151C229.527 184.168 231.066 182.187 232.679 180.22C230.904 182.32 229.216 184.44 227.613 186.563C218.466 198.675 212.084 210.871 207.988 220.042C205.941 224.626 204.466 228.452 203.504 231.13C203.023 232.468 202.67 233.52 202.437 234.236C202.379 234.416 202.328 234.575 202.285 234.712C202.264 234.776 202.246 234.835 202.229 234.889L202.594 234.812L202.99 234.729Z" fill="url(#paint0_linear_31_4229)"/>
<defs>
<linearGradient id="paint0_linear_31_4229" x1="0.5308" y1="233.801" x2="398.483" y2="233.801" gradientUnits="userSpaceOnUse">
<stop stop-color="#8F15FF"/>
<stop offset="0.6" stop-color="#002A94"/>
</linearGradient>
</defs>
</svg>
