<svg width="32" height="34" viewBox="0 0 32 34" fill="none" xmlns="http://www.w3.org/2000/svg">
<path d="M16 19.7429C17.5149 19.7429 18.7429 18.5149 18.7429 17C18.7429 15.4852 17.5149 14.2572 16 14.2572C14.4852 14.2572 13.2572 15.4852 13.2572 17C13.2572 18.5149 14.4852 19.7429 16 19.7429Z" fill="#61DAFB"/>
<path fill-rule="evenodd" clip-rule="evenodd" d="M3.10901 15.555C2.48788 16.1157 2.28235 16.6057 2.28235 17C2.28235 17.3944 2.48788 17.8844 3.10901 18.4451C3.73003 19.0057 4.68481 19.5564 5.94974 20.0393C8.47272 21.0027 12.0257 21.6195 16 21.6195C19.9742 21.6195 23.5272 21.0027 26.0502 20.0393C27.3151 19.5564 28.2699 19.0057 28.8909 18.4451C29.512 17.8844 29.7176 17.3944 29.7176 17C29.7176 16.6057 29.512 16.1157 28.8909 15.555C28.2699 14.9943 27.3151 14.4436 26.0502 13.9607C23.5272 12.9974 19.9742 12.3806 16 12.3806C12.0257 12.3806 8.47272 12.9974 5.94974 13.9607C4.68481 14.4436 3.73003 14.9943 3.10901 15.555ZM5.23634 12.0922C8.04008 11.0217 11.8459 10.3806 16 10.3806C20.154 10.3806 23.9598 11.0217 26.7636 12.0922C28.162 12.6262 29.3626 13.2864 30.2311 14.0704C31.0994 14.8543 31.7176 15.8426 31.7176 17C31.7176 18.1574 31.0994 19.1457 30.2311 19.9296C29.3626 20.7136 28.162 21.3738 26.7636 21.9078C23.9598 22.9783 20.154 23.6195 16 23.6195C11.8459 23.6195 8.04008 22.9783 5.23634 21.9078C3.8379 21.3738 2.63734 20.7136 1.76885 19.9296C0.900475 19.1457 0.282349 18.1574 0.282349 17C0.282349 15.8426 0.900475 14.8543 1.76885 14.0704C2.63734 13.2864 3.8379 12.6262 5.23634 12.0922Z" fill="#61DAFB"/>
<path fill-rule="evenodd" clip-rule="evenodd" d="M10.806 5.11359C10.0098 4.85603 9.48268 4.92303 9.14116 5.12021C8.79965 5.31738 8.47806 5.74038 8.30304 6.55865C8.12805 7.37677 8.12852 8.47898 8.34272 9.81593C8.76995 12.4826 10.0123 15.868 11.9994 19.3097C13.9865 22.7515 16.2972 25.5201 18.3929 27.2234C19.4437 28.0774 20.398 28.6289 21.194 28.8864C21.9901 29.144 22.5173 29.077 22.8588 28.8798C23.2003 28.6826 23.5219 28.2596 23.6969 27.4414C23.8719 26.6233 23.8714 25.521 23.6572 24.1841C23.23 21.5175 21.9877 18.1321 20.0005 14.6903C18.0134 11.2485 15.7028 8.4799 13.607 6.77659C12.5563 5.92262 11.602 5.37111 10.806 5.11359ZM14.8684 5.22455C17.1974 7.1174 19.6555 10.0927 21.7326 13.6903C23.8096 17.2878 25.1573 20.9043 25.632 23.8677C25.8688 25.3458 25.8974 26.7156 25.6527 27.8597C25.408 29.0037 24.8611 30.0332 23.8588 30.6119C22.8564 31.1906 21.6915 31.1494 20.5784 30.7893C19.4652 30.4292 18.2932 29.7196 17.1315 28.7755C14.8026 26.8826 12.3444 23.9073 10.2674 20.3097C8.19032 16.7122 6.84268 13.0957 6.3679 10.1323C6.1311 8.65427 6.10256 7.28445 6.34728 6.14032C6.59197 4.99634 7.13881 3.96687 8.14116 3.38816C9.14352 2.80944 10.3085 2.8506 11.4216 3.21069C12.5348 3.57082 13.7068 4.28044 14.8684 5.22455Z" fill="#61DAFB"/>
<path fill-rule="evenodd" clip-rule="evenodd" d="M23.6969 6.55864C23.5219 5.74038 23.2003 5.31737 22.8588 5.1202C22.5173 4.92303 21.9902 4.85602 21.194 5.11358C20.398 5.3711 19.4437 5.92261 18.393 6.77659C16.2972 8.47989 13.9866 11.2485 11.9994 14.6903C10.0123 18.1321 8.76999 21.5175 8.34276 24.1841C8.12856 25.521 8.12809 26.6232 8.30308 27.4414C8.4781 28.2596 8.79969 28.6826 9.1412 28.8798C9.48272 29.077 10.0098 29.144 10.806 28.8864C11.602 28.6289 12.5563 28.0774 13.607 27.2234C15.7028 25.5201 18.0135 22.7515 20.0006 19.3097C21.9877 15.8679 23.23 12.4825 23.6573 9.81592C23.8715 8.47897 23.8719 7.37676 23.6969 6.55864ZM25.6321 10.1323C25.1573 13.0957 23.8097 16.7122 21.7326 20.3097C19.6556 23.9073 17.1974 26.8826 14.8685 28.7755C13.7068 29.7196 12.5348 30.4292 11.4216 30.7893C10.3085 31.1494 9.14356 31.1906 8.1412 30.6119C7.13884 30.0331 6.59201 29.0037 6.34732 27.8597C6.1026 26.7156 6.13114 25.3457 6.36794 23.8677C6.84272 20.9043 8.19035 17.2878 10.2674 13.6903C12.3444 10.0927 14.8026 7.1174 17.1316 5.22454C18.2932 4.28044 19.4652 3.57081 20.5784 3.21068C21.6915 2.8506 22.8565 2.80944 23.8588 3.38815C24.8612 3.96686 25.408 4.99633 25.6527 6.14032C25.8974 7.28445 25.8689 8.65426 25.6321 10.1323Z" fill="#61DAFB"/>
</svg>
