<svg width="32" height="24" viewBox="0 0 32 24" fill="none" xmlns="http://www.w3.org/2000/svg">
<path d="M27.2336 13.7466C26.1482 13.7523 25.2049 14.0137 24.415 14.4001C24.1252 13.8262 23.8354 13.3148 23.7842 12.9397C23.7274 12.5022 23.6592 12.2351 23.7274 11.7123C23.7956 11.1895 24.1025 10.4451 24.0968 10.3882C24.0911 10.3314 24.0286 10.0643 23.4035 10.0587C22.7784 10.053 22.2386 10.178 22.1761 10.3428C22.1136 10.5076 21.9942 10.8826 21.9147 11.269C21.8067 11.8373 20.6645 13.866 20.011 14.9286C19.8008 14.5138 19.6189 14.1501 19.5791 13.8603C19.5223 13.4227 19.4541 13.1557 19.5223 12.6329C19.5905 12.1101 19.8974 11.3656 19.8917 11.3088C19.886 11.252 19.8235 10.9849 19.1984 10.9792C18.5733 10.9736 18.0335 11.0986 17.971 11.2634C17.9085 11.4282 17.8403 11.8146 17.7096 12.1896C17.5789 12.5647 16.0616 15.9515 15.6639 16.8266C15.4593 17.2755 15.2831 17.6335 15.1581 17.8779C15.1581 17.8779 15.1524 17.8949 15.1354 17.9233C15.0274 18.1336 14.9649 18.2472 14.9649 18.2472C14.9649 18.2472 14.9649 18.2472 14.9649 18.2529C14.8797 18.4063 14.7887 18.5484 14.7433 18.5484C14.7092 18.5484 14.6467 18.1393 14.7546 17.5824C14.9819 16.4061 15.5218 14.5763 15.5161 14.5138C15.5161 14.4797 15.6184 14.1615 15.1638 13.9967C14.7205 13.8319 14.5614 14.1046 14.5217 14.1046C14.4819 14.1046 14.4535 14.2012 14.4535 14.2012C14.4535 14.2012 14.9479 12.1442 13.5102 12.1442C12.6123 12.1442 11.3735 13.1272 10.7598 14.0137C10.3734 14.224 9.54942 14.6729 8.66862 15.1559C8.33335 15.3434 7.98671 15.531 7.66281 15.7071C7.64008 15.6844 7.61734 15.656 7.59461 15.6333C5.85575 13.7751 2.63942 12.4624 2.7758 9.96774C2.82694 9.05853 3.13948 6.67185 8.95275 3.77374C13.7375 1.41548 17.5448 2.06897 18.204 3.51802C19.1473 5.58648 16.1639 9.42789 11.2201 9.98479C9.33348 10.195 8.34471 9.46767 8.09468 9.19491C7.83328 8.91078 7.7935 8.89373 7.6969 8.95056C7.53779 9.0358 7.64008 9.29151 7.6969 9.43926C7.84465 9.82567 8.45268 10.5076 9.48123 10.8429C10.3904 11.1383 12.601 11.3031 15.2774 10.2689C18.2722 9.10967 20.6134 5.88765 19.9258 3.18844C19.2382 0.449439 14.6921 -0.454088 10.3904 1.07452C7.83328 1.98373 5.06019 3.41574 3.06561 5.27962C0.69598 7.49582 0.320932 9.42221 0.474361 10.2291C1.02557 13.0931 4.97495 14.957 6.55471 16.3379C6.47515 16.3834 6.40128 16.4231 6.33877 16.4572C5.54889 16.8493 2.53713 18.4234 1.78703 20.0884C0.934649 21.975 1.92341 23.3274 2.57691 23.5093C4.60559 24.0719 6.69109 23.0604 7.81055 21.3897C8.93002 19.719 8.79364 17.5483 8.27652 16.5538C8.27084 16.5425 8.26516 16.5311 8.25379 16.5197C8.45836 16.4004 8.66862 16.2754 8.87319 16.156C9.27665 15.9174 9.67443 15.6958 10.0154 15.5139C9.82218 16.0424 9.68011 16.6732 9.61192 17.5824C9.52669 18.6507 9.96424 20.0372 10.5382 20.5828C10.7939 20.8214 11.0951 20.8271 11.2883 20.8271C11.9588 20.8271 12.26 20.2702 12.5953 19.611C13.0044 18.8041 13.3738 17.8665 13.3738 17.8665C13.3738 17.8665 12.9135 20.4009 14.1637 20.4009C14.6183 20.4009 15.0786 19.8099 15.2831 19.5088C15.2831 19.5144 15.2831 19.5144 15.2831 19.5144C15.2831 19.5144 15.2945 19.4974 15.3172 19.4576C15.3627 19.3837 15.3911 19.3383 15.3911 19.3383C15.3911 19.3383 15.3911 19.3326 15.3911 19.3269C15.5729 19.0087 15.9821 18.287 16.5901 17.088C17.3743 15.5423 18.1301 13.6103 18.1301 13.6103C18.1301 13.6103 18.1983 14.0819 18.4313 14.8661C18.5676 15.3264 18.8518 15.8321 19.0791 16.3208C18.8972 16.5766 18.7836 16.7186 18.7836 16.7186C18.7836 16.7186 18.7836 16.7186 18.7893 16.7243C18.6415 16.9175 18.4824 17.1278 18.3062 17.3323C17.6868 18.0711 16.9481 18.9178 16.8458 19.1621C16.7265 19.4519 16.7549 19.6622 16.9822 19.8327C17.147 19.9577 17.4425 19.9747 17.7437 19.9577C18.3006 19.9179 18.6927 19.7815 18.8859 19.6963C19.187 19.5883 19.5394 19.4235 19.869 19.1792C20.477 18.7303 20.8464 18.0881 20.8123 17.2414C20.7952 16.7754 20.6418 16.3095 20.4543 15.8719C20.5111 15.7924 20.5622 15.7128 20.6191 15.6333C21.5794 14.2297 22.3238 12.6897 22.3238 12.6897C22.3238 12.6897 22.392 13.1613 22.625 13.9455C22.7386 14.3433 22.9716 14.7752 23.1762 15.1957C22.2727 15.9287 21.7158 16.7811 21.5169 17.338C21.1589 18.3723 21.4373 18.8382 21.9658 18.9462C22.2045 18.9973 22.5454 18.8837 22.7955 18.7757C23.1137 18.6734 23.4887 18.4973 23.8467 18.2359C24.4548 17.7869 25.0401 17.1619 25.006 16.3152C24.9889 15.9287 24.8867 15.548 24.7446 15.1786C25.5117 14.8604 26.5005 14.6843 27.762 14.832C30.4669 15.1502 31.0011 16.838 30.8988 17.5483C30.7965 18.2586 30.2283 18.645 30.0407 18.7643C29.8532 18.8837 29.7907 18.9235 29.8078 19.0087C29.8305 19.1337 29.9214 19.128 30.0805 19.1053C30.3021 19.0655 31.5012 18.5314 31.5523 17.2244C31.6375 15.5537 30.0464 13.7296 27.2336 13.7466ZM6.36718 20.7817C5.46934 21.7591 4.21917 22.1284 3.67933 21.8159C3.09971 21.4806 3.32701 20.0372 4.42943 19.003C5.09997 18.3722 5.96372 17.7869 6.53766 17.4289C6.66836 17.3494 6.86156 17.2357 7.09455 17.0937C7.13433 17.0709 7.15706 17.0596 7.15706 17.0596C7.20252 17.0312 7.24798 17.0028 7.29344 16.9743C7.6969 18.4518 7.31049 19.7531 6.36718 20.7817ZM12.9021 16.3379C12.5896 17.0994 11.9361 19.0485 11.5383 18.9405C11.1974 18.8496 10.9871 17.3721 11.4701 15.9117C11.7145 15.1786 12.2316 14.3035 12.5328 13.9626C13.0215 13.4171 13.5613 13.2352 13.692 13.4568C13.8568 13.7466 13.0953 15.8606 12.9021 16.3379ZM18.2949 18.9178C18.1642 18.986 18.0392 19.0314 17.9823 18.9973C17.9426 18.9746 18.0392 18.8837 18.0392 18.8837C18.0392 18.8837 18.7154 18.1563 18.9825 17.8267C19.1359 17.6335 19.3177 17.4062 19.511 17.1505C19.511 17.1732 19.511 17.2016 19.511 17.2244C19.511 18.0938 18.6699 18.6791 18.2949 18.9178ZM22.4545 17.9688C22.3579 17.9006 22.375 17.6733 22.6989 16.963C22.8239 16.6845 23.1194 16.2186 23.6251 15.7696C23.682 15.9515 23.7217 16.1276 23.7161 16.2924C23.7104 17.3892 22.9262 17.7983 22.4545 17.9688Z" fill="#F472B6"/>
</svg>
