<svg width="32" height="20" viewBox="0 0 32 20" fill="none" xmlns="http://www.w3.org/2000/svg">
<path d="M16 0.669189C11.8517 0.669189 9.25921 2.74274 8.22204 6.88946C9.77779 4.8159 11.5926 4.03861 13.6666 4.55681C14.85 4.85247 15.6958 5.71107 16.6322 6.66109C18.1572 8.20867 19.9223 9.99978 23.778 9.99978C27.9259 9.99978 30.5188 7.92623 31.5556 3.77913C30.0002 5.85268 28.1854 6.63036 26.111 6.11217C24.928 5.8165 24.0822 4.9579 23.1458 4.00788C21.6208 2.4603 19.8553 0.669189 16 0.669189ZM8.22204 9.99978C4.07415 9.99978 1.48124 12.0733 0.444458 16.2204C1.99982 14.1469 3.81467 13.3692 5.889 13.8878C7.07205 14.1838 7.91782 15.0421 8.85422 15.9917C10.3792 17.5393 12.1447 19.3308 16 19.3308C20.1483 19.3308 22.7408 17.2572 23.778 13.1101C22.2222 15.1837 20.4074 15.9613 18.3334 15.4428C17.15 15.1475 16.3042 14.2885 15.3678 13.3389C13.8428 11.7913 12.0778 9.99978 8.22204 9.99978Z" fill="#06B6D4"/>
</svg>
